{"glyphs":{"0":{"ha":889,"x_min":68,"x_max":821,"o":"m 226 43 q 185 73 226 43 q 106 195 143 103 q 68 406 68 288 q 113 640 68 525 q 249 832 157 754 q 463 910 342 910 q 622 875 551 910 q 736 781 693 840 q 821 493 821 663 q 776 251 821 365 q 638 60 731 136 q 428 -17 546 -17 q 226 43 310 -17 m 210 461 q 270 169 210 288 q 445 51 331 51 q 618 157 560 51 q 679 432 676 263 q 619 725 679 608 q 444 842 558 842 q 271 736 329 842 q 210 461 213 631 z "},"1":{"ha":517,"x_min":35,"x_max":481,"o":"m 46 753 q 35 794 35 782 q 47 824 35 806 l 300 910 l 339 910 l 339 93 l 481 64 q 475 24 481 36 q 454 0 469 11 l 69 0 q 93 54 69 47 l 219 86 l 219 785 l 46 753 z "},"2":{"ha":744,"x_min":51,"x_max":669,"o":"m 51 86 q 131 153 72 106 l 229 235 q 326 327 271 269 q 417 436 382 385 q 478 555 453 488 q 503 691 503 622 q 460 802 503 760 q 338 844 418 844 q 185 792 257 844 l 165 672 q 100 643 161 647 l 74 832 q 356 910 225 910 q 567 850 486 910 q 647 683 647 790 q 615 542 647 614 q 541 415 583 469 q 429 296 499 360 q 314 196 360 232 l 199 108 q 178 93 185 99 l 560 64 l 604 233 q 669 207 650 233 l 669 0 l 88 0 q 59 33 67 15 q 51 86 51 50 z "},"3":{"ha":746,"x_min":54,"x_max":674,"o":"m 54 176 q 72 227 54 208 q 113 246 89 246 q 155 237 136 246 q 179 215 174 228 q 222 89 179 126 q 355 51 265 51 q 492 98 444 51 q 540 224 540 144 q 489 347 540 303 q 335 429 438 390 q 315 447 319 435 q 311 485 311 458 q 522 688 522 546 q 479 800 522 758 q 355 842 436 842 q 201 789 274 842 l 182 669 q 117 640 178 644 l 90 829 q 113 840 94 829 q 147 858 131 850 q 171 869 163 865 q 226 889 190 876 l 257 897 q 363 910 311 910 q 573 850 497 910 q 649 683 649 790 q 447 472 649 538 q 674 228 674 410 q 592 48 674 113 q 366 -17 510 -17 q 138 44 222 -17 q 54 176 54 104 z "},"4":{"ha":719,"x_min":14,"x_max":674,"o":"m 14 308 l 467 910 q 549 836 549 910 l 549 301 l 638 301 l 638 222 l 549 222 l 549 93 l 674 64 q 668 24 674 36 q 647 0 663 11 l 301 0 q 324 54 301 44 l 429 86 l 429 222 l 50 222 q 22 255 29 238 q 14 308 14 272 m 108 301 l 429 301 l 429 740 l 108 301 z "},"5":{"ha":732,"x_min":54,"x_max":671,"o":"m 54 176 q 72 227 54 208 q 113 246 89 246 q 155 237 136 246 q 179 215 174 228 q 222 89 179 126 q 353 51 265 51 q 485 108 440 51 q 533 249 531 164 q 485 406 533 340 q 346 471 438 471 q 126 401 217 471 q 107 419 111 408 q 103 457 103 431 l 144 890 l 624 890 l 592 665 q 526 694 531 669 l 506 826 l 208 804 l 208 499 q 386 542 297 542 q 595 469 519 542 q 671 280 671 396 q 583 74 671 164 q 355 -17 494 -17 q 135 44 215 -17 q 54 176 54 104 z "},"6":{"ha":782,"x_min":68,"x_max":731,"o":"m 217 42 q 176 71 217 42 q 101 184 135 100 q 68 388 68 268 q 117 627 68 507 q 269 828 167 747 q 508 910 372 910 q 617 886 574 910 q 661 833 661 863 q 640 785 661 803 q 597 768 618 768 q 564 775 575 768 q 467 842 526 842 q 288 717 363 842 q 210 439 213 593 q 319 514 250 479 q 467 549 388 549 q 663 469 594 549 q 731 273 731 389 q 642 70 731 157 q 426 -17 554 -17 q 217 42 299 -17 m 211 372 q 408 51 226 51 q 540 116 493 51 q 588 269 588 181 q 551 411 588 357 q 440 465 514 465 q 306 436 367 465 q 211 372 246 407 z "},"7":{"ha":613,"x_min":21,"x_max":617,"o":"m 21 890 l 606 890 q 617 864 617 876 q 569 761 617 835 l 468 606 q 366 407 413 525 q 319 193 319 289 q 354 40 319 97 q 322 1 344 19 q 263 -17 299 -17 q 203 19 228 -17 q 178 125 178 54 q 525 804 178 424 l 140 825 l 119 694 q 54 665 115 669 l 21 890 z "},"8":{"ha":765,"x_min":71,"x_max":699,"o":"m 71 218 q 123 351 71 288 q 244 456 175 414 q 117 663 122 525 q 188 837 117 764 q 386 910 258 910 q 585 847 514 910 q 656 681 656 785 q 529 476 656 578 q 655 388 611 439 q 699 238 699 336 q 613 61 699 139 q 383 -17 528 -17 q 154 49 238 -17 q 71 218 71 114 m 285 436 q 228 364 254 414 q 203 232 203 314 q 252 101 203 150 q 385 51 301 51 q 519 96 469 51 q 568 219 568 140 q 501 344 568 303 q 379 401 449 378 q 285 436 310 425 m 222 692 q 238 626 222 647 q 263 594 253 606 q 292 571 272 582 l 325 553 q 363 536 336 546 l 401 522 q 485 494 426 511 q 549 679 549 571 q 505 799 549 757 q 385 842 461 842 q 266 802 310 842 q 222 692 222 763 z "},"9":{"ha":785,"x_min":57,"x_max":717,"o":"m 319 365 q 124 437 190 365 q 57 623 57 508 q 144 824 57 738 q 367 910 232 910 q 529 876 460 910 q 639 786 599 843 q 717 522 717 674 q 600 153 717 315 q 458 30 544 76 q 283 -17 371 -17 q 149 7 196 -17 q 103 60 103 31 q 124 108 103 90 q 167 125 146 125 q 200 118 189 125 q 304 51 239 51 q 496 181 417 51 q 575 468 575 310 l 575 478 q 465 401 535 438 q 319 365 394 365 m 378 842 q 247 781 293 842 q 200 637 200 719 q 235 503 200 554 q 344 451 271 451 q 478 480 418 451 q 572 543 538 508 q 378 842 553 842 z "},"\u0000":{"ha":0,"x_min":0,"x_max":0,"o":""},"\r":{"ha":399,"x_min":0,"x_max":0,"o":""}," ":{"ha":307,"x_min":0,"x_max":0,"o":""},"!":{"ha":343,"x_min":100,"x_max":243,"o":"m 169 -17 q 153 -17 169 -17 q 119 2 138 -17 q 100 52 100 21 q 122 104 100 83 q 171 125 143 125 q 243 54 243 125 q 222 4 243 25 q 169 -17 200 -17 m 101 815 q 171 910 101 910 q 240 815 240 910 q 204 257 240 778 q 171 247 190 247 q 138 257 151 247 q 101 815 101 778 z "},"\"":{"ha":404,"x_min":53,"x_max":350,"o":"m 53 938 q 110 1007 53 1007 q 168 938 168 1007 q 135 660 168 922 q 110 653 125 653 q 88 660 94 653 q 53 938 53 932 m 235 938 q 292 1007 235 1007 q 350 938 350 1007 q 317 660 350 922 q 292 653 307 653 q 269 660 276 653 q 235 938 235 932 z "},"#":{"ha":761,"x_min":56,"x_max":706,"o":"m 74 257 q 56 294 56 268 q 60 328 56 319 l 226 328 l 250 476 l 114 476 q 96 513 96 488 q 100 547 96 539 l 263 547 l 289 714 q 360 685 340 714 l 338 547 l 471 547 l 497 714 q 568 685 549 714 l 546 547 l 686 547 q 706 510 706 535 q 701 476 706 485 l 535 476 l 511 328 l 646 328 q 665 290 665 315 q 661 257 665 265 l 499 257 l 472 90 q 401 119 421 90 l 424 257 l 290 257 l 264 90 q 193 119 213 90 l 215 257 l 74 257 m 303 328 l 435 328 l 458 476 l 326 476 l 303 328 z "},"$":{"ha":697,"x_min":68,"x_max":626,"o":"m 68 63 l 89 228 q 130 247 111 247 q 160 244 149 247 l 175 96 q 319 47 247 53 l 319 363 q 238 397 265 383 q 172 436 210 410 q 101 581 101 488 q 160 736 101 674 q 319 807 218 799 l 319 910 q 374 896 360 910 l 374 807 q 522 769 458 799 l 590 738 l 565 571 q 507 594 515 571 l 488 699 q 374 744 440 738 l 374 461 q 540 386 499 414 q 626 225 626 325 q 559 57 626 125 q 374 -17 492 -11 l 374 -122 q 319 -108 339 -122 l 319 -15 q 68 63 203 -7 m 201 615 q 231 537 201 567 q 319 482 261 507 l 319 744 q 201 615 201 728 m 374 50 q 476 94 438 57 q 514 190 514 131 q 478 282 514 249 q 374 342 442 315 l 374 50 z "},"%":{"ha":963,"x_min":61,"x_max":899,"o":"m 240 481 q 196 481 240 481 q 107 536 153 481 q 61 674 61 592 q 114 828 61 757 q 254 900 167 900 q 386 846 342 900 q 431 706 431 792 q 378 551 431 621 q 240 481 326 481 m 68 21 l 829 910 q 899 872 883 910 l 138 -17 q 68 21 83 -17 m 246 863 q 224 863 246 863 q 178 817 203 863 q 154 697 154 771 q 179 570 154 622 q 247 518 204 518 q 315 565 290 518 q 339 684 339 611 q 314 810 339 757 q 246 863 289 863 m 708 7 q 664 7 708 7 q 575 63 621 7 q 529 201 529 118 q 582 355 529 283 q 722 426 635 426 q 854 372 810 426 q 899 233 899 318 q 847 77 899 147 q 708 7 794 7 m 714 389 q 692 389 714 389 q 647 343 671 389 q 622 223 622 297 q 647 97 622 149 q 715 44 672 44 q 783 91 758 44 q 807 210 807 138 q 782 336 807 283 q 714 389 757 389 z "},"&":{"ha":974,"x_min":68,"x_max":921,"o":"m 68 231 q 283 497 68 375 q 208 591 239 542 q 169 670 178 640 q 161 731 161 700 q 217 860 161 810 q 363 910 274 910 q 513 864 453 910 q 572 731 572 818 q 404 503 572 600 l 639 240 q 676 553 675 358 l 594 560 q 621 619 594 607 l 908 642 q 921 606 921 628 q 897 563 921 585 q 831 540 872 540 l 775 544 q 696 182 775 332 q 806 91 764 114 q 921 49 849 68 q 825 -17 921 -17 q 726 8 771 -17 q 629 88 681 33 q 367 -17 529 -17 q 114 89 199 -17 q 68 231 68 146 m 319 457 q 228 376 260 419 q 197 258 197 333 q 261 117 197 182 q 408 51 325 51 q 588 133 526 51 q 463 283 550 175 l 319 457 m 269 675 l 278 656 q 292 636 282 649 l 303 617 q 329 589 321 599 q 369 543 349 564 q 475 725 475 615 q 441 812 475 779 q 360 844 407 844 q 284 815 313 844 q 256 744 256 785 q 269 675 256 703 z "},"'":{"ha":222,"x_min":53,"x_max":168,"o":"m 53 938 q 110 1007 53 1007 q 168 938 168 1007 q 135 660 168 922 q 110 653 125 653 q 88 660 94 653 q 53 938 53 932 z "},"(":{"ha":369,"x_min":53,"x_max":347,"o":"m 101 -40 q 53 356 53 133 q 101 765 53 579 q 244 1056 150 950 q 309 1090 275 1090 q 347 1056 343 1090 q 215 765 260 950 q 171 358 171 579 q 215 -48 171 136 q 347 -337 260 -232 q 307 -372 343 -372 q 192 -269 249 -372 q 101 -40 135 -167 z "},")":{"ha":368,"x_min":22,"x_max":317,"o":"m 22 -337 q 154 -47 110 -232 q 199 358 199 138 q 154 765 199 579 q 22 1056 110 950 q 63 1090 25 1090 q 176 985 117 1090 q 276 732 236 881 q 317 361 317 583 q 267 -44 317 139 q 125 -337 218 -226 q 60 -372 96 -372 q 22 -337 25 -372 z "},"*":{"ha":626,"x_min":60,"x_max":567,"o":"m 67 771 q 60 810 60 789 q 72 855 60 832 q 103 889 85 878 l 293 786 l 251 997 q 313 1019 282 1019 q 374 997 343 1019 l 335 786 l 522 892 q 567 811 567 858 q 561 775 567 788 l 347 747 l 506 601 q 466 548 493 568 q 406 528 439 528 l 314 722 l 224 528 l 215 528 q 157 549 182 528 q 124 599 132 571 l 281 747 l 67 771 z "},"+":{"ha":651,"x_min":43,"x_max":607,"o":"m 63 328 q 43 373 43 343 q 47 414 43 403 l 279 414 l 279 649 q 322 653 289 653 q 369 633 354 653 l 369 414 l 588 414 q 607 369 607 399 q 603 326 607 339 l 368 326 l 368 92 q 326 88 358 88 q 279 107 294 88 l 279 328 l 63 328 z "},",":{"ha":297,"x_min":38,"x_max":240,"o":"m 58 -208 l 53 -207 q 38 -176 38 -206 q 120 -126 93 -158 q 147 -64 147 -93 q 135 -17 147 -35 q 108 8 122 0 q 68 67 68 33 q 85 119 68 100 q 132 138 103 138 q 213 97 185 138 q 240 1 240 56 q 218 -96 240 -53 q 164 -161 196 -139 q 58 -208 99 -208 z "},"-":{"ha":500,"x_min":82,"x_max":419,"o":"m 346 306 l 192 308 q 86 303 132 308 q 82 329 82 310 l 82 344 q 156 419 82 419 l 310 417 q 415 422 369 417 q 419 396 419 401 l 419 381 q 346 306 419 306 z "},".":{"ha":286,"x_min":67,"x_max":218,"o":"m 139 -17 q 122 -17 139 -17 q 86 3 106 -17 q 67 57 67 24 q 89 112 67 90 q 144 133 111 133 q 198 113 178 133 q 218 60 218 93 q 195 5 218 26 q 139 -17 172 -17 z "},"/":{"ha":567,"x_min":39,"x_max":528,"o":"m 39 -247 l 446 1019 q 514 1004 496 1019 q 528 989 518 1000 l 121 -278 q 39 -247 61 -278 z "},":":{"ha":332,"x_min":81,"x_max":251,"o":"m 163 6 q 144 6 163 6 q 103 28 125 6 q 81 89 81 51 q 106 151 81 126 q 169 175 132 175 q 229 152 207 175 q 251 92 251 129 q 226 30 251 54 q 163 6 200 6 m 163 446 q 144 446 163 446 q 103 469 125 446 q 81 529 81 492 q 106 591 81 567 q 169 615 132 615 q 229 592 207 615 q 251 532 251 569 q 226 470 251 494 q 163 446 200 446 z "},";":{"ha":350,"x_min":64,"x_max":267,"o":"m 85 -210 l 79 -208 q 64 -178 64 -204 q 147 -127 119 -160 q 174 -60 174 -94 q 134 8 174 -25 q 94 70 94 42 q 113 118 94 99 q 160 138 131 138 q 240 95 213 138 q 267 -1 267 53 q 244 -98 267 -56 q 189 -164 221 -140 q 85 -210 124 -210 m 172 446 q 153 446 172 446 q 112 469 135 446 q 90 529 89 492 q 116 591 90 567 q 179 615 142 615 q 239 592 217 615 q 261 532 261 569 q 235 470 261 494 q 172 446 210 446 z "},"<":{"ha":732,"x_min":42,"x_max":654,"o":"m 63 324 q 42 371 42 344 q 63 418 42 397 l 650 656 q 654 613 654 644 q 635 565 654 581 l 175 371 l 635 176 q 654 129 654 161 q 650 86 654 97 l 63 324 z "},"=":{"ha":739,"x_min":94,"x_max":644,"o":"m 114 229 q 94 276 94 244 q 99 318 94 308 l 625 318 q 644 271 644 303 q 640 229 644 239 l 114 229 m 114 424 q 94 471 94 439 q 99 513 94 503 l 625 513 q 644 465 644 497 q 640 424 644 433 l 114 424 z "},">":{"ha":732,"x_min":78,"x_max":690,"o":"m 82 86 q 78 129 78 97 q 97 176 78 161 l 557 371 l 97 565 q 78 613 78 581 q 82 656 78 644 l 669 418 q 690 371 690 397 q 669 324 690 344 l 82 86 z "},"?":{"ha":593,"x_min":46,"x_max":547,"o":"m 46 746 q 110 863 46 815 q 289 910 175 910 q 475 851 403 910 q 547 694 547 793 q 499 553 547 615 q 396 453 453 492 q 358 428 382 443 l 324 408 q 293 392 314 403 q 271 381 272 382 l 261 257 q 224 247 247 247 q 188 257 201 247 l 174 411 l 236 438 q 300 472 258 447 q 365 524 342 497 q 406 592 388 550 q 425 697 425 635 q 390 802 425 760 q 293 844 356 844 q 169 707 169 844 q 111 679 142 679 q 63 697 81 679 q 46 746 46 714 m 222 -17 q 206 -17 222 -17 q 172 2 190 -17 q 153 52 153 21 q 174 104 153 83 q 224 125 196 125 q 296 54 296 125 q 274 4 296 25 q 222 -17 253 -17 z "},"@":{"ha":1147,"x_min":61,"x_max":1096,"o":"m 183 -77 q 153 -42 183 -77 q 92 81 124 -7 q 61 270 61 168 q 97 474 61 372 q 198 658 133 575 q 365 792 263 742 q 592 843 468 843 q 815 801 715 843 q 974 688 914 758 q 1096 346 1096 543 q 992 85 1096 183 q 731 -12 889 -12 q 654 72 654 -12 q 671 194 654 92 q 587 57 650 126 q 450 -12 524 -12 q 308 52 356 -12 q 261 226 261 117 q 346 494 261 367 q 457 599 388 558 q 606 639 526 639 q 751 610 685 639 q 847 557 817 582 l 776 132 q 774 101 774 113 q 801 71 774 71 q 943 137 881 71 q 1006 338 1006 203 q 891 635 1006 507 q 570 764 776 764 q 257 640 364 764 q 150 317 150 515 q 264 -17 150 118 q 567 -151 378 -151 q 860 -67 756 -151 l 882 -99 q 679 -217 781 -190 q 567 -231 626 -231 q 342 -189 440 -231 q 183 -77 243 -147 m 485 533 q 458 507 485 533 q 406 411 431 481 q 381 268 381 342 q 413 135 381 194 q 493 75 446 75 q 587 128 540 75 q 658 229 633 181 q 689 303 682 278 l 728 531 q 603 585 665 585 q 485 533 540 585 z "},"A":{"ha":907,"x_min":-7,"x_max":928,"o":"m -7 0 q 15 54 -7 44 l 101 86 l 390 858 q 446 910 410 910 q 490 900 468 910 l 808 93 l 928 64 q 922 24 928 36 q 901 0 917 11 l 572 0 q 594 54 572 47 l 679 92 l 599 299 l 265 299 l 188 93 l 311 64 q 306 24 311 36 q 285 0 300 11 l -7 0 m 292 371 l 569 371 l 428 735 l 292 371 z "},"B":{"ha":811,"x_min":63,"x_max":742,"o":"m 63 0 q 85 54 63 47 l 172 86 l 172 797 l 63 826 q 89 890 63 872 l 435 890 q 704 685 704 890 q 659 572 704 621 q 557 500 614 522 q 694 412 646 474 q 742 255 742 350 q 651 80 742 160 q 425 0 561 0 l 63 0 m 292 93 q 439 64 367 64 q 560 103 511 64 q 608 247 608 142 q 551 401 608 351 q 351 451 494 451 l 292 451 l 292 93 m 292 515 q 357 514 294 514 q 441 516 419 514 q 491 528 463 518 q 536 554 519 538 q 565 603 553 571 q 578 679 578 635 q 563 754 578 724 q 521 800 547 785 q 419 828 472 828 q 292 804 365 828 l 292 515 z "},"C":{"ha":883,"x_min":67,"x_max":818,"o":"m 67 401 q 122 641 67 526 q 287 833 176 756 q 552 910 397 910 q 818 840 707 910 l 793 629 q 728 658 732 633 l 710 774 l 710 775 q 528 842 633 842 q 289 736 367 842 q 208 461 211 631 q 291 170 208 289 q 515 51 374 51 q 707 133 635 51 l 725 290 q 803 272 785 290 l 818 101 q 515 -17 688 -17 q 312 18 400 -17 q 172 114 224 53 q 67 401 67 235 z "},"D":{"ha":986,"x_min":63,"x_max":918,"o":"m 63 0 q 85 54 63 47 l 172 86 l 172 797 l 63 826 q 89 890 63 872 l 483 890 q 806 772 694 890 q 918 479 918 653 q 865 251 918 358 q 706 72 813 143 q 460 0 599 0 l 63 0 m 292 93 q 471 64 376 64 q 699 166 624 64 q 776 432 774 268 q 697 713 776 600 q 472 826 617 826 q 292 804 403 826 l 292 93 z "},"E":{"ha":800,"x_min":63,"x_max":744,"o":"m 63 0 q 85 54 63 47 l 172 86 l 172 797 l 63 826 q 89 890 63 872 l 701 890 l 701 678 q 647 700 654 678 l 601 826 l 292 804 l 292 488 l 556 488 l 583 571 q 616 567 607 571 q 638 549 625 563 l 638 354 q 616 336 625 340 q 583 332 607 332 l 556 415 l 292 415 l 292 93 l 638 64 l 681 233 q 721 228 708 233 q 744 207 733 222 l 744 0 l 63 0 z "},"F":{"ha":750,"x_min":63,"x_max":701,"o":"m 63 0 q 85 54 63 47 l 172 86 l 172 797 l 63 826 q 89 890 63 872 l 701 890 l 701 678 q 647 700 654 678 l 601 826 l 292 804 l 292 474 l 556 474 l 583 557 q 616 553 607 557 q 638 535 625 549 l 638 333 q 616 315 625 319 q 583 311 607 311 l 556 401 l 292 401 l 292 93 l 431 64 q 425 24 431 36 q 404 0 419 11 l 63 0 z "},"G":{"ha":922,"x_min":67,"x_max":885,"o":"m 67 411 q 119 648 67 536 q 276 835 171 760 q 530 910 381 910 q 792 840 679 910 l 769 629 q 704 658 708 633 l 683 775 q 514 842 610 842 q 284 736 358 842 q 207 461 210 631 q 286 170 207 289 q 501 51 365 51 q 679 118 615 51 l 679 319 l 542 349 q 547 389 542 376 q 568 413 553 401 l 885 413 q 863 358 885 369 l 804 328 l 804 65 q 508 -17 685 -17 q 309 19 396 -17 q 169 117 222 56 q 67 411 67 238 z "},"H":{"ha":1040,"x_min":63,"x_max":989,"o":"m 63 0 q 85 54 63 47 l 172 86 l 172 797 l 63 826 q 68 867 63 854 q 89 890 74 879 l 417 890 q 394 836 417 843 l 292 804 l 292 501 l 744 501 l 744 797 l 635 826 q 640 867 635 854 q 661 890 646 879 l 989 890 q 967 836 989 843 l 864 804 l 864 93 l 989 64 q 983 24 989 36 q 963 0 978 11 l 635 0 q 657 54 635 47 l 744 86 l 744 429 l 292 429 l 292 93 l 417 64 q 411 24 417 36 q 390 0 406 11 l 63 0 z "},"I":{"ha":468,"x_min":63,"x_max":417,"o":"m 63 0 q 85 54 63 47 l 172 86 l 172 797 l 63 826 q 68 867 63 854 q 89 890 74 879 l 417 890 q 394 836 417 843 l 292 804 l 292 93 l 417 64 q 411 24 417 36 q 390 0 406 11 l 63 0 z "},"J":{"ha":439,"x_min":-72,"x_max":404,"o":"m 4 -254 q -49 -237 -26 -254 q -72 -200 -72 -219 q -50 -146 -72 -146 q 114 -115 88 -146 q 154 -20 149 -74 q 160 93 160 33 l 160 797 l 50 826 q 56 867 50 854 q 76 890 61 879 l 404 890 q 382 836 404 843 l 279 797 l 279 235 q 237 -3 279 113 q 131 -186 194 -118 q 4 -254 67 -254 z "},"K":{"ha":889,"x_min":63,"x_max":890,"o":"m 63 0 q 85 54 63 47 l 172 86 l 172 797 l 63 826 q 68 867 63 854 q 89 890 74 879 l 417 890 q 394 836 417 843 l 292 804 l 292 93 l 417 64 q 411 24 417 36 q 390 0 406 11 l 63 0 m 310 496 l 628 797 l 519 826 q 525 867 519 854 q 546 890 531 879 l 861 890 q 839 836 861 843 l 740 804 l 428 511 q 649 231 524 367 q 890 33 775 96 q 869 -2 890 13 q 799 -17 847 -17 q 685 26 750 -17 q 554 150 621 69 q 310 496 432 296 z "},"L":{"ha":757,"x_min":63,"x_max":731,"o":"m 63 0 q 85 54 63 47 l 172 86 l 172 797 l 63 826 q 68 867 63 854 q 89 890 74 879 l 417 890 q 394 836 417 843 l 292 804 l 292 93 l 638 64 l 667 233 q 707 228 694 233 q 731 207 719 222 l 731 0 l 63 0 z "},"M":{"ha":1232,"x_min":38,"x_max":1203,"o":"m 38 0 q 60 56 38 47 l 146 88 l 211 797 l 101 826 q 107 867 101 854 q 128 890 113 879 l 361 890 l 622 210 l 865 890 l 1144 890 q 1122 836 1144 843 l 1019 804 l 1076 93 l 1203 64 q 1197 26 1203 38 q 1175 0 1192 14 l 849 0 q 871 56 849 46 l 958 88 l 904 756 l 639 32 q 604 -4 626 -4 q 576 6 589 -4 l 288 756 l 228 93 l 353 64 q 347 24 353 36 q 325 0 342 13 l 38 0 z "},"N":{"ha":1039,"x_min":63,"x_max":997,"o":"m 63 0 q 85 54 63 47 l 172 86 l 172 797 l 63 826 q 68 867 63 854 q 89 890 74 879 l 299 890 l 796 218 l 796 797 l 686 826 q 692 867 686 854 q 713 890 697 879 l 997 890 q 975 836 997 843 l 879 804 l 879 38 q 867 6 879 17 q 837 -4 854 -4 q 806 4 819 -4 l 256 743 l 256 93 l 381 64 q 375 24 381 36 q 354 0 369 11 l 63 0 z "},"O":{"ha":1026,"x_min":67,"x_max":960,"o":"m 171 116 q 145 146 171 116 q 93 251 119 176 q 67 415 67 326 q 98 592 67 504 q 186 752 129 681 q 331 867 243 824 q 525 910 419 910 q 848 785 736 910 q 960 482 960 661 q 840 142 960 292 q 695 26 783 69 q 500 -17 607 -17 q 308 19 393 -17 q 171 116 222 56 m 506 842 q 432 842 506 842 q 282 733 357 842 q 207 454 207 625 q 288 167 207 283 q 517 51 369 51 q 742 159 665 51 q 818 438 818 267 q 737 726 818 610 q 506 842 656 842 z "},"P":{"ha":768,"x_min":63,"x_max":736,"o":"m 63 0 q 85 54 63 47 l 172 86 l 172 797 l 63 826 q 89 890 63 872 l 433 890 q 658 822 581 890 q 736 647 736 753 q 643 453 736 542 q 401 365 550 365 q 292 378 342 365 l 292 93 l 431 64 q 425 24 431 36 q 404 0 419 11 l 63 0 m 292 439 q 397 428 332 428 q 544 492 489 428 q 600 635 600 556 q 552 768 600 715 q 415 821 504 821 q 292 804 372 821 l 292 439 z "},"Q":{"ha":1026,"x_min":67,"x_max":1410,"o":"m 171 116 q 145 146 171 116 q 93 251 119 176 q 67 415 67 326 q 98 592 67 504 q 186 752 129 681 q 331 867 243 824 q 525 910 419 910 q 848 785 736 910 q 960 482 960 661 q 887 209 960 338 q 686 22 814 81 q 1026 -90 825 -35 q 1396 -146 1228 -146 q 1410 -184 1410 -160 q 1381 -231 1410 -208 q 1294 -254 1351 -254 q 967 -180 1178 -254 q 556 -12 756 -106 q 501 -17 528 -17 q 308 19 393 -17 q 171 116 222 56 m 506 842 q 432 842 506 842 q 282 733 357 842 q 207 454 207 625 q 288 167 207 283 q 517 51 369 51 q 742 159 665 51 q 818 438 818 267 q 737 726 818 610 q 506 842 656 842 z "},"R":{"ha":876,"x_min":63,"x_max":871,"o":"m 63 0 q 85 54 63 47 l 172 86 l 172 797 l 63 826 q 89 890 63 872 l 433 890 q 654 826 576 890 q 732 677 732 763 q 683 524 732 592 q 547 421 635 456 q 871 33 711 154 q 852 -1 871 14 q 803 -17 833 -17 q 633 94 719 -17 q 450 397 547 206 q 389 393 429 393 q 292 410 349 393 l 292 93 l 417 64 q 411 24 417 36 q 390 0 406 11 l 63 0 m 292 472 q 381 461 331 461 q 535 509 472 461 q 599 650 599 557 q 551 770 599 719 q 415 821 503 821 q 292 804 372 821 l 292 472 z "},"S":{"ha":726,"x_min":60,"x_max":663,"o":"m 60 69 l 82 257 q 142 279 104 279 q 161 275 153 279 l 176 106 q 246 67 199 86 q 364 49 293 49 q 485 94 435 49 q 535 210 535 139 q 490 322 535 281 q 381 387 444 363 q 253 439 317 411 q 144 522 189 467 q 99 673 99 578 q 167 839 99 768 q 358 910 236 910 q 474 892 414 910 q 556 865 535 875 q 622 832 576 856 l 596 643 q 531 672 535 647 l 511 792 q 364 844 439 844 q 249 805 289 844 q 208 694 208 765 q 299 567 208 613 q 388 528 339 547 q 484 488 436 510 q 572 437 532 465 q 638 360 613 408 q 663 247 663 311 q 583 60 663 136 q 360 -17 503 -17 q 60 69 217 -17 z "},"T":{"ha":835,"x_min":32,"x_max":801,"o":"m 32 664 l 32 890 l 801 890 l 801 664 q 747 686 753 664 l 701 826 l 476 804 l 476 93 l 601 64 q 596 24 601 36 q 575 0 590 11 l 247 0 q 269 54 247 47 l 357 86 l 357 804 l 132 826 l 86 686 q 32 664 81 664 z "},"U":{"ha":1001,"x_min":39,"x_max":967,"o":"m 39 826 q 44 867 39 854 q 65 890 50 879 l 399 890 q 376 836 399 843 l 274 804 l 274 283 q 508 57 274 57 q 694 109 632 57 q 757 286 757 161 l 757 797 l 647 826 q 653 867 647 854 q 674 890 658 879 l 967 890 q 944 836 967 843 l 849 804 l 849 297 q 763 69 849 156 q 501 -17 676 -17 q 238 65 326 -17 q 149 293 149 147 l 149 797 l 39 826 z "},"V":{"ha":897,"x_min":-19,"x_max":904,"o":"m -19 826 q -14 867 -19 854 q 7 890 -8 879 l 335 890 q 313 836 335 843 l 225 804 l 474 156 l 710 797 l 586 826 q 592 867 586 854 q 613 890 597 879 l 904 890 q 882 836 904 843 l 796 804 l 511 35 q 456 -17 492 -17 q 411 -7 433 -17 l 100 797 l -19 826 z "},"W":{"ha":1308,"x_min":-10,"x_max":1322,"o":"m -10 826 q -4 867 -10 854 q 17 890 1 879 l 343 890 q 321 836 343 843 l 219 804 l 435 167 l 631 804 l 721 804 l 931 167 l 1114 797 l 1004 826 q 1010 867 1004 854 q 1031 890 1015 879 l 1322 890 q 1300 836 1322 843 l 1199 804 l 971 35 q 945 -1 965 14 q 905 -17 925 -17 q 863 -7 885 -17 l 657 624 l 475 35 q 449 -2 468 13 q 410 -17 431 -17 q 367 -7 389 -17 l 99 797 l -10 826 z "},"X":{"ha":881,"x_min":10,"x_max":872,"o":"m 10 0 q 32 54 10 44 l 118 86 l 363 453 l 132 797 l 24 826 q 29 867 24 854 q 50 890 35 879 l 396 890 q 374 836 396 843 l 271 804 l 457 526 l 635 797 l 525 826 q 531 867 525 854 q 551 890 536 879 l 857 890 q 835 836 857 843 l 732 804 l 504 457 l 747 93 l 872 64 q 867 24 872 36 q 846 0 861 11 l 500 0 q 522 54 500 44 l 608 86 l 410 382 l 217 93 l 342 64 q 336 24 342 36 q 315 0 331 11 l 10 0 z "},"Y":{"ha":850,"x_min":-19,"x_max":857,"o":"m -19 826 q -14 867 -19 854 q 7 890 -8 879 l 351 890 q 329 836 351 843 l 226 804 l 451 447 l 639 797 l 529 826 q 535 867 529 854 q 556 890 540 879 l 857 890 q 835 836 857 843 l 732 804 l 489 361 l 489 93 l 614 64 q 608 24 614 36 q 588 0 603 11 l 260 0 q 282 54 260 47 l 369 86 l 369 361 l 90 797 l -19 826 z "},"Z":{"ha":800,"x_min":53,"x_max":740,"o":"m 53 35 q 63 64 53 50 l 549 804 l 179 826 l 133 686 q 79 664 126 664 l 79 890 l 681 890 q 715 857 715 890 q 706 826 715 840 l 224 93 l 633 64 l 676 247 q 717 242 704 247 q 740 221 729 236 l 740 0 l 89 0 q 53 35 53 0 z "},"[":{"ha":393,"x_min":107,"x_max":374,"o":"m 107 -358 l 107 1081 l 371 1081 q 374 1053 374 1061 q 356 993 374 1008 l 218 993 l 218 -271 l 356 -271 q 374 -331 374 -286 q 371 -358 374 -339 l 107 -358 z "},"\\":{"ha":567,"x_min":39,"x_max":528,"o":"m 39 989 q 121 1019 64 1019 l 528 -247 q 514 -264 519 -258 q 446 -278 497 -278 l 39 989 z "},"]":{"ha":393,"x_min":19,"x_max":286,"o":"m 19 -331 q 38 -271 19 -286 l 175 -271 l 175 993 l 38 993 q 19 1053 19 1008 q 22 1081 19 1061 l 286 1081 l 286 -358 l 22 -358 q 19 -331 19 -339 z "},"^":{"ha":833,"x_min":149,"x_max":690,"o":"m 149 439 l 372 963 q 419 983 393 983 q 467 963 446 983 l 690 439 q 661 408 674 414 q 622 403 649 403 l 419 850 l 217 403 q 178 408 190 403 q 149 439 165 414 z "},"_":{"ha":960,"x_min":174,"x_max":779,"o":"m 193 -249 q 174 -201 174 -233 q 178 -160 174 -169 l 760 -160 q 779 -207 779 -175 q 775 -249 779 -239 l 193 -249 z "},"`":{"ha":604,"x_min":135,"x_max":449,"o":"m 139 914 q 135 939 135 924 q 154 974 135 954 q 191 993 174 993 q 221 986 208 993 q 296 917 244 975 l 449 750 q 419 719 449 726 l 342 769 l 225 842 q 139 914 154 888 z "},"a":{"ha":649,"x_min":47,"x_max":649,"o":"m 47 124 q 247 331 47 285 l 411 368 l 411 439 q 311 582 411 582 q 224 551 250 582 q 197 454 197 521 q 146 438 174 438 q 100 456 118 438 q 82 501 82 475 q 156 598 82 554 q 329 642 229 642 q 477 593 429 642 q 525 429 525 544 l 525 125 q 563 71 525 71 q 625 94 593 71 l 649 61 q 510 -17 581 -17 q 411 121 411 -17 q 323 34 386 85 q 192 -17 260 -17 q 86 24 125 -17 q 47 124 47 64 m 254 278 q 178 233 204 265 q 153 165 153 201 q 176 102 153 128 q 240 76 199 76 q 330 106 281 76 q 411 171 379 136 l 411 315 l 254 278 z "},"b":{"ha":729,"x_min":-7,"x_max":674,"o":"m -7 1008 q 133 1019 88 1019 q 207 944 207 1019 l 207 504 q 435 642 333 642 q 617 554 560 642 q 674 327 674 467 q 585 85 674 188 q 348 -17 496 -17 q 93 49 200 -17 l 93 922 l 15 954 q -7 1008 -7 963 m 207 99 q 343 47 261 47 q 496 119 447 47 q 544 317 544 192 q 385 543 544 543 q 207 447 303 543 l 207 99 z "},"c":{"ha":639,"x_min":54,"x_max":596,"o":"m 351 -17 q 129 76 204 -17 q 54 309 54 168 q 140 546 54 450 q 360 642 226 642 q 518 597 447 642 q 589 475 589 551 q 572 428 589 444 q 525 411 556 411 q 467 439 494 411 q 351 582 461 582 q 183 331 183 582 q 236 144 183 213 q 383 76 289 76 q 476 97 429 76 q 572 156 540 124 l 596 122 l 579 104 q 351 -17 468 -17 z "},"d":{"ha":769,"x_min":56,"x_max":760,"o":"m 315 -17 q 124 78 193 -17 q 56 309 56 174 q 139 543 56 444 q 369 642 222 642 q 522 619 446 642 l 522 922 l 444 954 q 422 1008 422 963 q 548 1019 517 1019 q 592 1017 579 1019 q 620 995 604 1015 q 636 939 636 975 l 636 125 q 674 71 636 71 q 736 94 704 71 l 760 61 q 621 -17 692 -17 q 522 119 522 -17 q 423 21 483 58 q 315 -17 363 -17 m 185 331 q 229 146 185 215 q 365 76 274 76 q 522 172 436 76 l 522 526 q 381 578 454 578 q 185 331 185 578 z "},"e":{"ha":656,"x_min":56,"x_max":601,"o":"m 56 318 q 56 385 56 318 q 141 547 56 453 q 356 642 226 642 q 517 583 449 642 q 601 342 596 517 l 183 342 q 240 143 183 210 q 388 76 296 76 q 574 156 481 76 l 597 122 q 354 -17 474 -17 q 210 12 271 -17 q 117 89 150 40 q 56 318 56 183 m 185 400 l 469 404 q 433 539 468 496 q 344 582 397 582 q 185 400 203 582 z "},"f":{"ha":461,"x_min":36,"x_max":543,"o":"m 36 0 q 58 54 36 46 l 136 86 l 136 551 l 49 557 q 75 618 49 606 l 136 624 q 182 803 136 711 q 304 957 228 894 q 460 1019 381 1019 q 522 997 500 1019 q 543 944 543 975 q 526 892 543 914 l 449 892 q 321 882 346 892 q 254 761 265 861 q 250 678 250 726 l 250 629 l 432 642 q 444 606 444 628 q 418 563 444 583 q 338 542 392 542 l 250 546 l 250 93 l 378 64 q 372 24 378 36 q 351 0 367 11 l 36 0 z "},"g":{"ha":693,"x_min":35,"x_max":678,"o":"m 35 -187 q 56 -131 35 -153 q 113 -110 76 -110 q 172 -131 149 -110 q 213 -276 172 -233 q 345 -319 254 -319 q 494 -272 436 -319 q 551 -174 551 -225 q 535 -99 551 -122 q 487 -69 519 -76 q 419 -61 454 -62 q 144 51 144 -50 q 167 126 144 90 q 219 183 190 161 q 54 397 54 224 q 133 570 54 499 q 333 642 213 642 q 488 610 426 642 l 665 626 q 678 596 678 611 q 572 531 678 531 q 601 407 601 481 q 518 242 601 311 q 321 174 435 174 l 286 174 q 260 101 260 138 q 276 74 260 82 q 303 64 292 67 q 330 58 314 61 q 357 55 346 56 q 385 53 368 54 q 433 49 401 51 q 493 43 464 47 q 563 28 522 39 q 624 -1 604 17 q 674 -131 674 -47 q 580 -308 674 -242 q 344 -375 486 -375 q 119 -317 203 -375 q 35 -187 35 -258 m 174 407 q 213 282 174 329 q 328 235 253 235 q 442 281 404 235 q 481 407 481 326 q 439 535 481 488 q 324 583 397 583 q 174 407 174 583 z "},"h":{"ha":796,"x_min":28,"x_max":782,"o":"m 28 0 q 50 54 28 46 l 128 86 l 128 922 l 50 954 q 28 1008 28 963 q 168 1019 122 1019 q 242 944 242 1019 l 242 504 q 489 642 379 642 q 668 436 668 642 l 668 93 l 782 64 q 776 24 782 36 q 756 0 771 11 l 454 0 q 476 54 454 46 l 554 86 l 554 415 q 433 543 554 543 q 242 447 350 543 l 242 93 l 356 64 q 350 24 356 36 q 329 0 344 11 l 28 0 z "},"i":{"ha":388,"x_min":40,"x_max":368,"o":"m 40 0 q 63 54 40 46 l 140 86 l 140 529 l 63 561 q 40 615 40 569 q 181 626 135 626 q 254 551 254 626 l 254 93 l 368 64 q 363 24 368 36 q 342 0 357 11 l 40 0 m 182 760 q 165 760 182 760 q 129 780 149 760 q 110 833 110 800 q 132 888 110 867 q 188 910 154 910 q 241 890 221 910 q 261 836 261 869 q 238 781 261 803 q 182 760 215 760 z "},"j":{"ha":336,"x_min":-90,"x_max":247,"o":"m -14 -375 q -67 -358 -44 -375 q -90 -315 -90 -340 q -74 -267 -90 -289 q 67 -244 24 -267 q 103 -203 92 -232 q 126 -18 126 -146 l 126 529 l 49 561 q 26 615 26 569 q 167 626 121 626 q 240 551 240 626 l 240 114 q 203 -98 240 17 q 105 -294 165 -212 q -14 -375 44 -375 m 169 760 q 153 760 169 760 q 117 780 136 760 q 97 833 97 800 q 119 888 97 867 q 175 910 142 910 q 228 890 208 910 q 247 836 247 869 q 225 781 247 803 q 169 760 203 760 z "},"k":{"ha":696,"x_min":28,"x_max":693,"o":"m 28 0 q 50 54 28 46 l 128 86 l 128 922 l 50 954 q 28 1008 28 963 q 168 1019 122 1019 q 242 944 242 1019 l 242 93 l 326 64 q 321 24 326 36 q 300 0 315 11 l 28 0 m 256 353 l 463 531 l 388 551 q 393 592 388 579 q 414 615 399 604 l 649 615 q 626 561 649 571 l 571 535 l 357 358 q 508 174 413 269 q 693 35 604 79 q 675 1 693 18 q 618 -17 657 -17 q 528 15 579 -17 q 428 108 478 46 q 256 353 343 210 z "},"l":{"ha":376,"x_min":28,"x_max":356,"o":"m 28 0 q 50 54 28 46 l 128 86 l 128 922 l 50 954 q 28 1008 28 963 q 168 1019 122 1019 q 242 944 242 1019 l 242 93 l 356 64 q 350 24 356 36 q 329 0 344 11 l 28 0 z "},"m":{"ha":1183,"x_min":40,"x_max":1171,"o":"m 40 0 q 63 54 40 46 l 140 86 l 140 529 l 63 561 q 40 615 40 569 q 181 626 135 626 q 254 551 254 626 l 254 504 q 475 642 381 642 q 590 609 547 642 q 649 499 633 576 q 872 642 779 642 q 1011 590 965 642 q 1057 415 1057 539 l 1057 93 l 1171 64 q 1165 24 1171 36 q 1144 0 1160 11 l 843 0 q 865 54 843 46 l 943 86 l 943 415 q 821 543 943 543 q 689 482 758 543 l 661 454 l 656 447 l 656 93 l 769 64 q 764 24 769 36 q 743 0 758 11 l 442 0 q 464 54 442 46 l 542 86 l 542 415 q 419 543 542 543 q 254 447 350 543 l 254 93 l 368 64 q 363 24 368 36 q 342 0 357 11 l 40 0 z "},"n":{"ha":797,"x_min":40,"x_max":785,"o":"m 40 0 q 63 54 40 46 l 140 86 l 140 529 l 63 561 q 40 615 40 569 q 181 626 135 626 q 254 551 254 626 l 254 504 q 490 642 382 642 q 626 591 581 642 q 671 415 671 540 l 671 93 l 785 64 q 779 24 785 36 q 758 0 774 11 l 457 0 q 479 54 457 46 l 557 86 l 557 415 q 436 543 557 543 q 254 447 350 543 l 254 93 l 368 64 q 363 24 368 36 q 342 0 357 11 l 40 0 z "},"o":{"ha":743,"x_min":56,"x_max":689,"o":"m 356 -17 q 278 -17 356 -17 q 128 74 201 -17 q 56 306 56 164 q 151 544 56 447 q 388 642 246 642 q 609 553 529 642 q 689 332 689 465 q 599 91 689 199 q 356 -17 510 -17 m 362 582 q 314 582 362 582 q 224 503 267 582 q 181 309 181 425 q 233 118 181 193 q 377 43 286 43 q 515 115 468 43 q 561 303 561 186 q 509 501 561 421 q 362 582 457 582 z "},"p":{"ha":763,"x_min":26,"x_max":707,"o":"m 26 -358 q 49 -304 26 -312 l 126 -272 l 126 529 l 49 561 q 26 615 26 569 q 167 626 121 626 q 240 551 240 626 l 240 504 q 468 642 367 642 q 650 554 593 642 q 707 327 707 467 q 618 85 707 188 q 381 -17 529 -17 q 240 3 308 -17 l 240 -265 l 354 -294 q 349 -335 354 -322 q 328 -358 343 -347 l 26 -358 m 240 99 q 376 47 294 47 q 529 119 481 47 q 578 317 578 192 q 418 543 578 543 q 240 447 336 543 l 240 99 z "},"q":{"ha":735,"x_min":56,"x_max":750,"o":"m 315 -17 q 124 78 193 -17 q 56 309 56 174 q 139 543 56 444 q 369 642 222 642 q 560 606 468 642 l 636 642 l 636 -265 l 750 -294 q 744 -335 750 -322 q 724 -358 739 -347 l 422 -358 q 444 -304 422 -312 l 522 -272 l 522 119 q 423 21 483 58 q 315 -17 363 -17 m 185 331 q 229 150 185 218 q 365 82 274 82 q 522 172 432 82 l 522 526 q 381 578 454 578 q 185 331 185 578 z "},"r":{"ha":560,"x_min":40,"x_max":547,"o":"m 256 546 l 254 529 l 254 496 q 340 604 290 567 q 434 642 389 642 q 513 615 479 642 q 547 556 547 589 q 522 506 547 524 q 468 489 496 489 q 375 538 421 538 q 254 435 307 538 l 254 93 l 382 64 q 376 24 382 36 q 356 0 371 11 l 40 0 q 63 54 40 46 l 140 86 l 140 529 l 63 561 q 40 615 40 569 q 181 626 135 626 q 256 546 256 626 z "},"s":{"ha":575,"x_min":49,"x_max":522,"o":"m 49 142 q 66 185 49 169 q 113 200 83 200 q 171 172 143 200 q 201 67 171 94 q 285 40 232 40 q 369 72 338 40 q 401 151 401 104 q 368 226 401 199 q 287 269 335 253 q 191 306 239 286 q 110 369 143 326 q 76 478 76 411 q 133 594 76 546 q 284 642 189 642 q 440 608 379 642 q 501 524 501 575 q 485 484 501 501 q 441 467 468 467 q 390 483 414 467 q 290 585 390 585 q 212 558 242 585 q 182 490 182 531 q 217 425 182 450 q 302 383 251 400 q 403 343 353 365 q 488 278 453 321 q 522 165 522 235 q 458 39 522 94 q 292 -17 393 -17 q 119 26 190 -17 q 49 142 49 69 z "},"t":{"ha":472,"x_min":32,"x_max":464,"o":"m 32 558 q 58 619 32 607 l 117 622 l 117 736 q 231 790 157 783 l 231 629 l 415 642 q 428 606 428 628 q 401 563 428 583 q 321 542 375 542 l 231 546 l 231 211 q 249 101 231 126 q 307 75 268 75 q 444 126 372 75 l 464 89 q 382 16 436 49 q 283 -17 328 -17 q 213 -10 239 -17 q 164 18 188 -3 q 117 196 117 60 l 117 551 l 32 558 z "},"u":{"ha":782,"x_min":21,"x_max":769,"o":"m 21 615 q 161 626 115 626 q 235 551 235 626 l 235 217 q 263 116 235 149 q 356 83 290 83 q 532 178 438 83 l 532 529 l 454 561 q 432 615 432 569 q 572 626 526 626 q 646 551 646 626 l 646 125 q 683 71 646 71 q 746 94 714 71 l 769 61 q 631 -17 701 -17 q 532 121 532 -17 q 431 29 496 75 q 303 -17 365 -17 q 167 35 213 -17 q 121 211 121 86 l 121 529 l 43 561 q 21 615 21 569 z "},"v":{"ha":685,"x_min":0,"x_max":690,"o":"m 0 551 q 6 592 0 579 q 26 615 11 604 l 303 615 q 281 561 303 569 l 206 529 l 372 114 l 529 522 l 426 551 q 432 592 426 579 q 453 615 438 604 l 690 615 q 668 561 690 571 l 600 529 l 410 35 q 353 -17 389 -17 q 308 -7 331 -17 l 96 522 l 0 551 z "},"w":{"ha":961,"x_min":1,"x_max":967,"o":"m 1 551 q 7 592 1 579 q 28 615 13 604 l 307 615 q 285 561 307 569 l 206 529 l 340 122 l 475 529 l 540 529 l 674 122 l 807 522 l 707 551 q 713 592 707 579 q 733 615 718 604 l 967 615 q 944 561 967 571 l 876 529 l 710 33 q 659 -17 692 -17 q 610 -7 626 -17 l 488 365 l 376 33 q 319 -17 358 -17 q 275 -7 297 -17 l 97 522 l 1 551 z "},"x":{"ha":694,"x_min":21,"x_max":679,"o":"m 21 0 q 43 54 21 46 l 121 86 l 289 310 l 133 522 l 35 551 q 40 592 35 579 q 61 615 46 604 l 325 615 q 303 561 325 575 l 253 529 l 367 374 l 475 522 l 415 551 q 421 592 415 579 q 442 615 426 604 l 651 615 q 629 561 651 571 l 561 529 l 404 322 l 571 93 l 679 64 q 674 24 679 36 q 653 0 668 11 l 376 0 q 399 54 376 40 l 451 85 l 326 258 l 203 93 l 278 64 q 272 24 278 36 q 251 0 267 11 l 21 0 z "},"y":{"ha":686,"x_min":-7,"x_max":692,"o":"m 78 -375 q 16 -357 39 -375 q -7 -313 -7 -339 q 10 -267 -7 -287 l 96 -267 q 212 -230 182 -267 q 317 -6 242 -193 l 97 522 l 1 551 q 7 592 1 579 q 28 615 13 604 l 306 615 q 283 561 306 569 l 208 529 l 372 126 l 528 522 l 426 551 q 432 592 426 579 q 453 615 438 604 l 692 615 q 669 561 692 571 l 601 529 l 390 0 q 246 -260 332 -146 q 78 -375 160 -375 z "},"z":{"ha":608,"x_min":39,"x_max":561,"o":"m 39 35 q 49 64 39 50 l 397 535 l 161 551 l 140 453 q 88 431 136 431 l 69 615 l 508 615 q 534 606 525 615 q 543 581 543 596 q 533 551 543 565 l 186 81 l 461 64 l 476 199 q 543 172 521 199 l 561 0 l 75 0 q 39 35 39 0 z "},"{":{"ha":474,"x_min":-6,"x_max":465,"o":"m 301 88 l 293 -119 q 323 -227 293 -190 q 447 -294 353 -264 q 465 -335 465 -310 q 463 -375 465 -361 q 336 -349 390 -375 q 251 -293 282 -324 q 199 -208 221 -262 q 178 -85 178 -154 q 183 88 183 -12 q 149 249 183 188 q 13 311 114 311 q -6 367 -6 326 q -3 394 -6 375 q 144 457 106 394 q 183 647 183 519 l 178 810 q 210 947 178 889 q 290 1031 242 1004 q 463 1081 379 1081 q 465 1041 465 1067 q 447 1000 465 1015 q 323 933 353 969 q 293 825 293 896 l 301 618 q 252 449 301 507 q 108 360 203 390 q 113 350 108 353 q 253 259 206 319 q 301 88 301 199 z "},"|":{"ha":313,"x_min":108,"x_max":204,"o":"m 108 -253 l 108 1019 q 204 994 176 1019 l 204 -278 q 108 -253 136 -278 z "},"}":{"ha":474,"x_min":8,"x_max":479,"o":"m 290 63 l 296 -104 q 273 -222 296 -171 q 217 -301 250 -272 q 142 -347 183 -329 q 11 -375 74 -375 q 8 -335 8 -361 q 26 -294 8 -310 q 151 -227 121 -264 q 181 -119 181 -190 l 172 88 q 220 260 172 200 q 361 350 268 319 q 365 360 365 353 q 222 449 272 389 q 172 618 172 508 l 181 825 q 151 933 181 896 q 26 1000 121 969 q 8 1041 8 1015 q 11 1081 8 1067 q 128 1058 74 1081 q 217 1007 183 1035 q 273 928 250 979 q 296 810 296 876 l 290 647 q 329 457 290 519 q 476 394 368 394 q 479 367 479 375 q 461 311 479 326 q 326 249 361 311 q 290 63 290 186 z "},"~":{"ha":700,"x_min":71,"x_max":639,"o":"m 71 353 q 128 448 71 399 q 261 497 185 497 q 386 463 303 497 q 506 429 469 429 q 622 513 574 429 q 639 471 639 494 q 577 377 639 426 q 439 328 515 328 q 318 361 399 328 q 200 394 238 394 q 88 314 135 394 q 71 353 71 335 z "}," ":{"ha":307,"x_min":0,"x_max":0,"o":""},"¡":{"ha":311,"x_min":83,"x_max":226,"o":"m 83 601 q 105 651 83 631 q 158 672 126 672 q 208 653 189 672 q 226 603 226 635 q 205 551 226 572 q 156 531 183 531 q 83 601 83 531 m 86 -160 q 122 399 86 -122 q 156 408 136 408 q 189 399 175 408 q 225 -160 225 -122 q 156 -254 225 -254 q 86 -160 86 -254 z "},"¢":{"ha":782,"x_min":72,"x_max":701,"o":"m 401 -15 q 158 102 243 -6 q 72 361 72 210 q 165 646 72 513 q 401 803 258 779 l 401 910 q 456 896 442 910 l 456 807 q 701 744 601 807 l 676 561 q 617 585 622 565 l 601 685 q 456 746 539 740 l 456 47 q 601 119 544 54 l 617 256 q 688 235 669 256 l 701 90 q 456 -17 589 -8 l 456 -122 q 401 -108 421 -122 l 401 -15 m 200 407 q 256 168 200 271 q 401 49 311 65 l 401 742 q 254 634 306 725 q 200 407 203 543 z "},"£":{"ha":669,"x_min":65,"x_max":590,"o":"m 65 381 q 79 435 65 415 l 140 435 q 107 594 107 510 q 172 742 107 678 q 344 807 236 807 q 520 769 453 807 q 588 678 588 732 q 569 633 588 651 q 521 614 551 614 q 465 632 490 614 q 435 716 465 688 q 345 744 404 744 q 249 710 286 744 q 211 611 211 676 q 271 435 211 546 l 464 435 q 450 381 464 394 l 296 381 q 314 297 314 339 q 192 93 314 200 l 489 64 l 525 221 q 590 194 571 221 l 590 0 l 129 0 q 101 33 108 15 q 93 86 93 50 q 214 269 214 197 q 169 381 214 307 l 65 381 z "},"¤":{"ha":931,"x_min":64,"x_max":865,"o":"m 64 36 l 225 204 q 175 382 175 279 q 236 575 175 485 l 64 754 q 129 807 72 793 l 292 639 q 479 706 372 706 q 654 656 586 706 l 800 807 q 865 754 857 793 l 713 596 q 763 417 763 526 q 696 214 763 308 l 865 36 q 800 -17 857 -3 l 638 154 q 458 94 564 94 q 283 144 353 94 l 129 -17 q 64 36 72 -3 m 265 410 q 319 249 265 314 q 472 183 372 183 q 622 242 572 183 q 672 397 672 301 q 618 557 672 493 q 466 621 564 621 q 318 562 368 621 q 265 410 268 503 z "},"¥":{"ha":878,"x_min":40,"x_max":838,"o":"m 40 747 q 64 807 40 788 l 378 807 q 357 756 378 763 l 264 726 l 469 407 l 639 719 l 540 747 q 564 807 540 790 l 838 807 q 818 756 838 763 l 724 726 l 533 383 l 688 383 q 674 329 688 343 l 503 329 l 503 253 l 688 253 q 674 199 688 213 l 503 199 l 503 88 l 617 61 q 593 0 617 19 l 294 0 q 315 51 294 44 l 394 81 l 394 199 l 206 199 q 219 253 206 233 l 394 253 l 394 329 l 206 329 q 219 383 206 364 l 360 383 l 140 719 l 40 747 z "},"¦":{"ha":319,"x_min":113,"x_max":206,"o":"m 113 -211 l 117 199 l 206 199 l 204 -236 q 113 -211 140 -236 m 115 543 l 115 978 q 204 953 179 978 l 204 543 l 115 543 z "},"§":{"ha":582,"x_min":68,"x_max":504,"o":"m 68 139 q 122 196 68 196 q 178 169 151 196 q 204 67 178 94 q 278 39 231 39 q 354 71 325 39 q 383 150 383 103 q 353 224 383 197 q 281 268 324 251 q 196 305 239 285 q 123 367 153 325 q 93 460 93 408 q 110 542 93 511 q 161 615 126 574 q 107 740 107 665 q 158 862 107 814 q 293 910 208 910 q 432 876 378 910 q 486 794 486 843 q 472 755 486 772 q 431 738 457 738 q 388 754 404 738 q 363 829 388 804 q 297 854 339 854 q 228 827 254 854 q 201 760 201 800 q 233 697 201 721 q 308 655 264 672 q 397 616 353 638 q 473 552 442 594 q 504 457 504 510 q 488 374 504 404 q 436 303 471 343 q 490 171 490 249 q 433 38 490 93 q 284 -17 375 -17 q 131 25 193 -17 q 68 139 68 67 m 207 585 q 181 502 181 549 q 209 430 181 456 q 302 377 238 404 q 385 340 367 350 q 403 418 403 374 q 382 490 403 463 q 336 528 361 517 q 269 557 311 540 q 207 585 226 574 z "},"¨":{"ha":472,"x_min":28,"x_max":444,"o":"m 28 839 q 47 883 28 864 q 95 903 67 903 q 140 885 124 903 q 157 841 157 868 q 137 794 157 814 q 92 775 117 775 q 28 839 28 775 m 315 839 q 335 883 315 864 q 383 903 354 903 q 428 885 411 903 q 444 841 444 868 q 424 794 444 814 q 379 775 404 775 q 315 839 315 775 z "},"©":{"ha":1026,"x_min":67,"x_max":960,"o":"m 171 116 q 145 146 171 116 q 93 251 119 176 q 67 415 67 326 q 98 592 67 504 q 186 752 129 681 q 331 867 243 824 q 525 910 419 910 q 848 785 736 910 q 960 482 960 661 q 840 142 960 292 q 695 26 783 69 q 500 -17 607 -17 q 308 19 393 -17 q 171 116 222 56 m 506 842 q 415 842 506 842 q 234 734 325 842 q 143 456 143 626 q 241 168 143 285 q 519 51 339 51 q 790 159 699 51 q 882 439 882 267 q 784 726 882 611 q 506 842 686 842 m 529 160 q 321 235 390 160 q 251 425 251 310 q 332 637 251 540 q 543 733 413 733 q 717 692 647 733 l 701 560 q 692 563 699 561 q 681 565 685 564 q 672 568 676 567 q 661 579 661 571 l 650 650 q 536 693 604 693 q 387 626 436 693 q 338 453 338 560 q 389 274 338 347 q 522 201 440 201 q 649 253 603 201 l 658 350 q 708 339 697 350 l 717 233 q 529 160 635 160 z "},"ª":{"ha":532,"x_min":78,"x_max":471,"o":"m 78 589 q 211 718 78 686 l 304 740 l 304 785 q 254 874 304 874 q 208 856 222 874 q 190 796 193 838 l 189 794 q 148 785 169 785 q 113 797 126 785 q 99 825 99 808 q 149 883 99 857 q 269 910 199 910 q 396 779 396 910 l 396 589 q 408 557 396 557 q 453 582 425 557 l 471 550 q 376 504 425 504 q 306 565 314 504 q 188 504 244 504 q 105 529 132 504 q 78 589 78 554 m 104 368 q 90 399 90 382 q 93 429 90 415 l 432 429 q 446 399 446 415 q 443 368 446 382 l 104 368 m 221 686 q 182 660 196 681 q 168 615 168 639 q 178 576 168 592 q 210 561 189 561 q 259 579 231 561 q 304 618 288 597 l 304 707 l 221 686 z "},"«":{"ha":632,"x_min":56,"x_max":564,"o":"m 76 324 q 56 371 56 344 q 76 418 56 397 l 276 624 q 310 561 310 600 l 168 371 l 310 181 q 276 118 310 142 l 76 324 m 331 324 q 310 371 310 344 q 331 418 310 397 l 531 624 q 564 561 564 600 l 422 371 l 564 181 q 531 118 564 142 l 331 324 z "},"¬":{"ha":792,"x_min":94,"x_max":696,"o":"m 114 326 q 94 374 94 342 q 99 415 94 406 l 696 415 l 696 201 q 654 197 686 197 q 607 217 622 197 l 607 326 l 114 326 z "},"­":{"ha":501,"x_min":79,"x_max":417,"o":"m 343 353 l 189 356 q 83 350 129 356 q 79 376 79 357 l 79 392 q 153 467 79 467 l 329 464 q 413 474 385 464 q 417 447 417 453 l 417 428 q 343 353 417 353 z "},"®":{"ha":667,"x_min":68,"x_max":600,"o":"m 326 360 q 264 360 326 360 q 135 435 203 360 q 68 619 68 510 q 143 819 68 729 q 342 910 218 910 q 533 836 467 910 q 600 650 600 763 q 524 449 600 538 q 326 360 449 360 m 331 854 q 282 854 331 854 q 180 794 232 854 q 128 642 128 735 q 182 483 128 549 q 336 418 236 418 q 488 476 436 418 q 540 628 540 533 q 485 788 540 722 q 331 854 431 854 m 322 625 l 303 626 l 303 535 l 342 522 q 329 501 342 506 l 210 501 q 225 524 210 519 l 246 531 l 246 756 l 210 767 q 221 789 210 781 l 339 789 q 442 717 442 789 q 383 633 442 658 q 474 524 440 550 l 490 513 q 460 496 490 496 q 339 626 406 496 l 322 625 m 303 653 q 322 650 314 650 q 385 714 385 650 q 317 760 385 760 q 308 758 313 758 l 303 758 l 303 653 z "},"¯":{"ha":758,"x_min":147,"x_max":626,"o":"m 167 801 q 147 849 147 817 q 151 890 147 881 l 607 890 q 626 843 626 875 q 622 801 626 811 l 167 801 z "},"°":{"ha":417,"x_min":54,"x_max":365,"o":"m 202 615 q 164 615 202 615 q 90 656 126 615 q 54 760 54 697 q 100 866 54 822 q 217 910 146 910 q 326 869 288 910 q 365 771 365 829 q 322 664 365 713 q 202 615 278 615 m 208 863 q 184 863 208 863 q 138 833 160 863 q 115 760 115 804 q 140 689 115 715 q 211 663 164 663 q 303 757 303 663 q 279 833 303 804 q 208 863 256 863 z "},"±":{"ha":739,"x_min":88,"x_max":651,"o":"m 107 93 q 88 139 88 108 q 92 179 88 169 l 632 179 q 651 133 651 164 q 647 93 651 103 l 107 93 m 107 404 q 88 450 88 419 q 92 490 88 481 l 324 490 l 324 649 q 366 653 333 653 q 414 633 399 653 l 414 490 l 632 490 q 651 445 651 475 q 647 403 651 415 l 413 403 l 413 242 q 371 238 403 238 q 324 257 339 238 l 324 404 l 107 404 z "},"²":{"ha":521,"x_min":64,"x_max":446,"o":"m 64 424 l 108 461 q 326 774 326 631 q 304 833 326 810 q 244 856 282 856 q 160 826 206 856 l 150 760 q 92 738 144 738 l 75 857 q 251 910 168 910 q 383 873 333 910 q 432 769 432 836 q 413 684 432 728 q 372 612 393 640 q 304 540 351 583 q 239 483 257 497 l 169 431 l 361 418 l 388 515 q 446 492 426 515 l 446 363 l 89 363 q 64 424 64 381 z "},"³":{"ha":501,"x_min":56,"x_max":439,"o":"m 56 474 q 104 522 56 522 q 132 515 118 522 q 150 496 146 507 q 172 428 150 447 q 242 408 194 408 q 314 433 289 408 q 339 499 339 458 q 238 608 339 578 q 206 658 206 625 q 328 772 328 697 q 306 831 328 808 q 244 854 283 854 q 161 826 204 854 l 151 760 q 93 738 146 738 l 76 857 q 250 910 169 910 q 377 873 331 910 q 424 769 424 836 q 322 646 424 690 q 439 503 439 600 q 388 392 439 432 q 247 353 336 353 q 107 391 158 353 q 56 474 56 429 z "},"´":{"ha":369,"x_min":28,"x_max":342,"o":"m 28 750 l 175 913 q 251 984 233 975 q 285 993 268 993 q 322 974 303 993 q 342 939 342 954 q 337 914 342 924 q 319 892 332 904 q 250 842 300 875 l 57 719 q 28 750 28 726 z "},"µ":{"ha":853,"x_min":72,"x_max":821,"o":"m 72 -358 q 94 -304 72 -312 l 172 -272 l 172 529 l 94 561 q 72 615 72 569 q 213 626 167 626 q 286 551 286 626 l 286 217 q 314 116 286 149 q 407 83 342 83 q 583 178 489 83 l 583 529 l 506 561 q 483 615 483 569 q 624 626 578 626 q 697 551 697 626 l 697 125 q 735 71 697 71 q 797 94 765 71 l 821 61 q 682 -17 753 -17 q 583 121 583 -17 q 482 29 547 75 q 354 -17 417 -17 l 349 -17 q 286 -8 314 -17 l 286 -283 q 213 -358 286 -358 l 72 -358 z "},"¶":{"ha":674,"x_min":43,"x_max":629,"o":"m 314 315 q 115 388 186 315 q 43 563 43 460 q 102 736 43 665 q 264 807 161 807 q 338 801 288 807 l 338 317 q 314 315 331 315 m 269 -278 q 216 -260 239 -278 q 193 -217 193 -243 q 210 -169 193 -192 q 350 -147 307 -169 q 386 -106 375 -135 q 410 79 410 -49 l 410 796 q 617 807 558 796 q 629 776 629 792 q 524 711 629 711 l 524 211 q 486 -1 524 114 q 388 -197 449 -115 q 269 -278 328 -278 z "},"·":{"ha":311,"x_min":81,"x_max":232,"o":"m 153 294 q 136 294 153 294 q 100 315 119 294 q 81 368 81 335 q 103 423 81 401 q 158 444 125 444 q 212 424 192 444 q 232 371 232 404 q 209 316 232 338 q 153 294 186 294 z "},"¸":{"ha":421,"x_min":28,"x_max":393,"o":"m 203 -375 q 160 -375 203 -375 q 73 -341 118 -375 q 28 -258 28 -307 q 74 -208 28 -208 q 117 -228 97 -208 q 200 -331 117 -331 q 275 -306 247 -331 q 303 -232 303 -281 q 267 -158 303 -183 q 169 -132 232 -132 q 132 -135 163 -132 l 161 -12 q 188 -14 165 -12 q 221 -15 210 -15 l 208 -74 q 339 -108 285 -74 q 393 -212 393 -143 q 340 -328 393 -282 q 203 -375 288 -375 z "},"¹":{"ha":383,"x_min":57,"x_max":338,"o":"m 256 431 l 338 415 q 315 363 338 379 l 75 363 q 97 410 75 404 l 163 428 l 163 819 l 65 800 q 57 833 57 819 q 65 858 57 847 l 217 910 l 256 910 l 256 431 z "},"º":{"ha":561,"x_min":71,"x_max":485,"o":"m 267 504 q 217 504 267 504 q 119 560 167 504 q 71 704 71 617 q 133 851 71 792 q 289 910 196 910 q 433 855 382 910 q 485 719 485 800 q 426 572 485 639 q 267 504 367 504 m 122 368 q 108 399 108 382 q 111 429 108 415 l 450 429 q 464 399 464 415 q 461 368 464 382 l 122 368 m 169 699 q 200 586 169 631 q 281 542 231 542 q 358 585 332 542 q 385 701 385 628 q 355 824 385 774 q 274 874 325 874 q 169 699 169 874 z "},"»":{"ha":632,"x_min":68,"x_max":576,"o":"m 68 181 l 210 371 l 68 561 q 101 624 68 600 l 301 418 q 322 371 322 397 q 301 324 322 344 l 101 118 q 68 181 68 142 m 322 181 l 464 371 l 322 561 q 356 624 322 600 l 556 418 q 576 371 576 397 q 556 324 576 344 l 356 118 q 322 181 322 142 z "},"¼":{"ha":1051,"x_min":51,"x_max":1008,"o":"m 250 431 l 332 415 q 310 363 332 379 l 69 363 q 92 410 69 404 l 157 428 l 157 819 l 60 800 q 51 833 51 819 q 60 858 51 847 l 211 910 l 250 910 l 250 431 m 321 21 l 610 910 l 631 910 q 669 897 657 910 l 682 881 l 393 -8 l 372 -8 q 333 6 343 -8 l 321 21 m 601 190 l 871 549 q 935 497 935 549 l 935 193 l 986 193 l 986 131 l 935 131 l 935 69 q 1008 54 965 63 q 986 1 1008 18 l 768 1 q 788 49 768 42 l 843 67 l 843 131 l 626 131 q 601 190 601 149 m 683 193 l 843 193 l 843 410 l 683 193 z "},"½":{"ha":1039,"x_min":46,"x_max":988,"o":"m 244 431 l 326 415 q 304 363 326 379 l 64 363 q 86 410 64 404 l 151 428 l 151 819 l 54 800 q 46 833 46 819 q 54 858 46 847 l 206 910 l 244 910 l 244 431 m 289 21 l 578 910 l 599 910 q 638 897 625 910 l 650 881 l 361 -8 l 340 -8 q 301 6 311 -8 l 289 21 m 606 63 l 650 100 q 868 413 868 269 q 846 472 868 449 q 785 494 824 494 q 701 465 747 494 l 692 399 q 633 376 686 376 l 617 496 q 792 549 710 549 q 924 512 875 549 q 974 408 974 475 q 954 323 974 367 q 914 251 935 279 q 846 179 893 222 q 781 122 799 136 l 711 69 l 903 57 l 929 154 q 988 131 968 154 l 988 1 l 631 1 q 606 63 606 19 z "},"¾":{"ha":1110,"x_min":50,"x_max":1067,"o":"m 50 474 q 99 522 50 522 q 126 515 113 522 q 144 496 140 507 q 167 428 144 447 q 236 408 189 408 q 308 433 283 408 q 333 499 333 458 q 232 608 333 578 q 200 658 200 625 q 322 772 322 697 q 300 831 322 808 q 238 854 278 854 q 156 826 199 854 l 146 760 q 88 738 140 738 l 71 857 q 244 910 164 910 q 372 873 325 910 q 418 769 418 836 q 317 646 418 690 q 433 503 433 600 q 382 392 433 432 q 242 353 331 353 q 101 391 153 353 q 50 474 50 429 m 399 21 l 688 910 l 708 910 q 747 897 735 910 l 760 881 l 471 -8 l 450 -8 q 411 6 421 -8 l 399 21 m 660 190 l 929 549 q 993 497 993 549 l 993 193 l 1044 193 l 1044 131 l 993 131 l 993 69 q 1067 54 1024 63 q 1044 1 1067 18 l 826 1 q 846 49 826 42 l 901 67 l 901 131 l 685 131 q 660 190 660 149 m 742 193 l 901 193 l 901 410 l 742 193 z "},"¿":{"ha":583,"x_min":42,"x_max":543,"o":"m 42 -39 q 149 167 42 83 q 318 275 228 229 l 328 399 q 365 408 342 408 q 401 399 388 408 l 415 244 q 330 206 396 244 q 253 158 264 168 l 219 125 q 189 82 197 103 q 164 -42 164 19 q 199 -147 164 -104 q 296 -189 233 -189 q 419 -51 419 -189 q 478 -24 447 -24 q 526 -41 508 -24 q 543 -90 543 -58 q 478 -206 543 -158 q 300 -254 413 -254 q 115 -196 188 -254 q 42 -39 42 -137 m 293 601 q 315 651 293 631 q 367 672 336 672 q 417 653 399 672 q 436 603 436 635 q 415 551 436 572 q 365 531 393 531 q 293 601 293 531 z "},"À":{"ha":907,"x_min":-7,"x_max":928,"o":"m -7 0 q 15 54 -7 44 l 101 86 l 390 858 q 446 910 410 910 q 490 900 468 910 l 808 93 l 928 64 q 922 24 928 36 q 901 0 917 11 l 572 0 q 594 54 572 47 l 679 92 l 599 299 l 265 299 l 188 93 l 311 64 q 306 24 311 36 q 285 0 300 11 l -7 0 m 268 1133 q 281 1173 268 1154 q 318 1192 293 1192 q 396 1164 343 1192 q 593 1049 449 1136 l 621 1032 q 622 1017 622 1029 q 603 993 622 1004 q 329 1079 365 1064 q 268 1133 268 1106 m 292 371 l 569 371 l 428 735 l 292 371 z "},"Á":{"ha":907,"x_min":-7,"x_max":928,"o":"m -7 0 q 15 54 -7 44 l 101 86 l 390 858 q 446 910 410 910 q 490 900 468 910 l 808 93 l 928 64 q 922 24 928 36 q 901 0 917 11 l 572 0 q 594 54 572 47 l 679 92 l 599 299 l 265 299 l 188 93 l 311 64 q 306 24 311 36 q 285 0 300 11 l -7 0 m 292 371 l 569 371 l 428 735 l 292 371 m 324 993 q 304 1017 304 1004 q 306 1032 304 1029 q 575 1183 531 1168 q 615 1192 596 1192 q 646 1173 633 1192 q 658 1133 658 1154 q 403 1017 658 1092 l 324 993 z "},"Â":{"ha":907,"x_min":-7,"x_max":928,"o":"m -7 0 q 15 54 -7 44 l 101 86 l 390 858 q 446 910 410 910 q 490 900 468 910 l 808 93 l 928 64 q 922 24 928 36 q 901 0 917 11 l 572 0 q 594 54 572 47 l 679 92 l 599 299 l 265 299 l 188 93 l 311 64 q 306 24 311 36 q 285 0 300 11 l -7 0 m 197 1024 l 199 1032 l 389 1165 q 451 1192 426 1192 q 511 1165 476 1192 l 701 1032 q 703 1024 703 1028 q 683 993 703 1004 l 450 1093 l 217 993 q 197 1024 197 1004 m 292 371 l 569 371 l 428 735 l 292 371 z "},"Ã":{"ha":907,"x_min":-7,"x_max":928,"o":"m -7 0 q 15 54 -7 44 l 101 86 l 390 858 q 446 910 410 910 q 490 900 468 910 l 808 93 l 928 64 q 922 24 928 36 q 901 0 917 11 l 572 0 q 594 54 572 47 l 679 92 l 599 299 l 265 299 l 188 93 l 311 64 q 306 24 311 36 q 285 0 300 11 l -7 0 m 224 1024 q 270 1103 224 1063 q 382 1144 317 1144 q 485 1116 417 1144 q 586 1088 554 1088 q 683 1157 643 1088 q 697 1122 697 1142 q 646 1044 697 1086 q 531 1003 594 1003 q 431 1031 497 1003 q 332 1058 364 1058 q 238 992 276 1058 q 224 1024 224 1007 m 292 371 l 569 371 l 428 735 l 292 371 z "},"Ä":{"ha":907,"x_min":-7,"x_max":928,"o":"m -7 0 q 15 54 -7 44 l 101 86 l 390 858 q 446 910 410 910 q 490 900 468 910 l 808 93 l 928 64 q 922 24 928 36 q 901 0 917 11 l 572 0 q 594 54 572 47 l 679 92 l 599 299 l 265 299 l 188 93 l 311 64 q 306 24 311 36 q 285 0 300 11 l -7 0 m 240 1086 q 260 1131 240 1111 q 308 1150 279 1150 q 353 1133 336 1150 q 369 1088 369 1115 q 349 1042 369 1061 q 304 1022 329 1022 q 240 1086 240 1022 m 292 371 l 569 371 l 428 735 l 292 371 m 528 1086 q 547 1131 528 1111 q 595 1150 567 1150 q 640 1133 624 1150 q 657 1088 657 1115 q 637 1042 657 1061 q 592 1022 617 1022 q 528 1086 528 1022 z "},"Å":{"ha":907,"x_min":-7,"x_max":928,"o":"m -7 0 q 15 54 -7 44 l 101 86 l 390 858 q 446 910 410 910 q 490 900 468 910 l 808 93 l 928 64 q 922 24 928 36 q 901 0 917 11 l 572 0 q 594 54 572 47 l 679 92 l 599 299 l 265 299 l 188 93 l 311 64 q 306 24 311 36 q 285 0 300 11 l -7 0 m 292 371 l 569 371 l 428 735 l 292 371 m 338 983 q 321 1000 338 983 q 304 1069 304 1018 q 349 1156 304 1121 q 463 1192 393 1192 q 567 1158 532 1192 q 603 1077 603 1125 q 559 988 603 1029 q 443 947 515 947 q 338 983 371 947 m 378 1063 q 400 1003 378 1026 q 456 979 422 979 q 509 1003 489 979 q 529 1067 529 1026 q 508 1135 529 1108 q 449 1163 486 1163 q 378 1063 378 1163 z "},"Æ":{"ha":1210,"x_min":-50,"x_max":1154,"o":"m -50 0 q -28 56 -50 47 l 58 88 l 601 797 l 492 826 q 518 890 492 872 l 1111 890 l 1111 678 q 1057 700 1064 678 l 1011 826 l 729 804 l 729 463 l 965 463 l 993 546 q 1026 542 1017 546 q 1047 524 1035 538 l 1047 329 q 1026 311 1035 315 q 993 307 1017 307 l 965 390 l 729 390 l 729 93 l 1047 64 l 1090 233 q 1131 228 1118 233 q 1154 207 1143 222 l 1154 0 l 500 0 q 522 54 500 47 l 610 86 l 610 390 l 392 390 l 164 93 l 289 64 q 283 24 289 36 q 261 0 278 13 l -50 0 m 446 463 l 608 463 l 608 675 l 446 463 z "},"Ç":{"ha":883,"x_min":67,"x_max":818,"o":"m 67 401 q 122 641 67 526 q 287 833 176 756 q 552 910 397 910 q 818 840 707 910 l 793 629 q 728 658 732 633 l 710 775 q 528 842 633 842 q 289 736 367 842 q 208 461 211 631 q 291 170 208 289 q 515 51 374 51 q 707 133 635 51 l 725 290 q 803 272 785 290 l 818 101 q 528 -17 689 -11 l 515 -74 q 646 -108 592 -74 q 700 -212 700 -143 q 647 -328 700 -282 q 510 -375 594 -375 q 380 -341 425 -375 q 335 -258 335 -307 q 381 -208 335 -208 q 424 -228 404 -208 q 507 -331 424 -331 q 582 -306 554 -331 q 610 -232 610 -281 q 574 -158 610 -183 q 476 -132 539 -132 q 439 -135 469 -132 l 468 -15 q 168 117 269 -1 q 67 401 67 236 z "},"È":{"ha":800,"x_min":63,"x_max":744,"o":"m 63 0 q 85 54 63 47 l 172 86 l 172 797 l 63 826 q 89 890 63 872 l 701 890 l 701 678 q 647 700 654 678 l 601 826 l 292 804 l 292 488 l 556 488 l 583 592 q 616 588 607 592 q 638 569 625 583 l 638 333 q 616 315 625 319 q 583 311 607 311 l 556 415 l 292 415 l 292 93 l 638 64 l 681 233 q 721 228 708 233 q 744 207 733 222 l 744 0 l 63 0 m 200 1133 q 213 1173 200 1154 q 250 1192 225 1192 q 328 1164 275 1192 q 525 1049 381 1136 l 553 1032 q 554 1017 554 1029 q 535 993 554 1004 q 261 1079 297 1064 q 200 1133 200 1106 z "},"É":{"ha":800,"x_min":63,"x_max":744,"o":"m 63 0 q 85 54 63 47 l 172 86 l 172 797 l 63 826 q 89 890 63 872 l 701 890 l 701 678 q 647 700 654 678 l 601 826 l 292 804 l 292 488 l 556 488 l 583 592 q 616 588 607 592 q 638 569 625 583 l 638 333 q 616 315 625 319 q 583 311 607 311 l 556 415 l 292 415 l 292 93 l 638 64 l 681 233 q 721 228 708 233 q 744 207 733 222 l 744 0 l 63 0 m 303 993 q 283 1017 283 1004 q 285 1032 283 1029 q 554 1183 510 1168 q 594 1192 575 1192 q 625 1173 613 1192 q 638 1133 638 1154 q 382 1017 638 1092 l 303 993 z "},"Ê":{"ha":800,"x_min":63,"x_max":744,"o":"m 63 0 q 85 54 63 47 l 172 86 l 172 797 l 63 826 q 89 890 63 872 l 701 890 l 701 678 q 647 700 654 678 l 601 826 l 292 804 l 292 488 l 556 488 l 583 571 q 616 567 607 571 q 638 549 625 563 l 638 354 q 616 336 625 340 q 583 332 607 332 l 556 415 l 292 415 l 292 93 l 638 64 l 681 233 q 721 228 708 233 q 744 207 733 222 l 744 0 l 63 0 m 160 1024 l 161 1032 l 351 1165 q 414 1192 389 1192 q 474 1165 439 1192 l 664 1032 q 665 1024 665 1028 q 646 993 665 1004 l 413 1093 l 179 993 q 160 1024 160 1004 z "},"Ë":{"ha":800,"x_min":63,"x_max":744,"o":"m 63 0 q 85 54 63 47 l 172 86 l 172 797 l 63 826 q 89 890 63 872 l 701 890 l 701 678 q 647 700 654 678 l 601 826 l 292 804 l 292 488 l 556 488 l 583 592 q 616 588 607 592 q 638 569 625 583 l 638 333 q 616 315 625 319 q 583 311 607 311 l 556 415 l 292 415 l 292 93 l 638 64 l 681 233 q 721 228 708 233 q 744 207 733 222 l 744 0 l 63 0 m 208 1086 q 228 1131 208 1111 q 276 1150 247 1150 q 321 1133 304 1150 q 338 1088 338 1115 q 317 1042 338 1061 q 272 1022 297 1022 q 208 1086 208 1022 m 496 1086 q 515 1131 496 1111 q 563 1150 535 1150 q 608 1133 592 1150 q 625 1088 625 1115 q 605 1042 625 1061 q 560 1022 585 1022 q 496 1086 496 1022 z "},"Ì":{"ha":468,"x_min":42,"x_max":417,"o":"m 42 1133 q 54 1173 42 1154 q 92 1192 67 1192 q 169 1164 117 1192 q 367 1049 222 1136 l 394 1032 q 396 1017 396 1029 q 376 993 396 1004 q 103 1079 139 1064 q 42 1133 42 1106 m 63 0 q 85 54 63 47 l 172 86 l 172 797 l 63 826 q 68 867 63 854 q 89 890 74 879 l 417 890 q 394 836 417 843 l 292 804 l 292 93 l 417 64 q 411 24 417 36 q 390 0 406 11 l 63 0 z "},"Í":{"ha":468,"x_min":63,"x_max":436,"o":"m 63 0 q 85 54 63 47 l 172 86 l 172 797 l 63 826 q 68 867 63 854 q 89 890 74 879 l 417 890 q 394 836 417 843 l 292 804 l 292 93 l 417 64 q 411 24 417 36 q 390 0 406 11 l 63 0 m 101 993 q 82 1017 82 1004 q 83 1032 82 1029 q 353 1183 308 1168 q 392 1192 374 1192 q 424 1173 411 1192 q 436 1133 436 1154 q 181 1017 436 1092 l 101 993 z "},"Î":{"ha":468,"x_min":-19,"x_max":486,"o":"m -19 1024 l -18 1032 l 172 1165 q 235 1192 210 1192 q 294 1165 260 1192 l 485 1032 q 486 1024 486 1028 q 467 993 486 1004 l 233 1093 l 0 993 q -19 1024 -19 1004 m 63 0 q 85 54 63 47 l 172 86 l 172 797 l 63 826 q 68 867 63 854 q 89 890 74 879 l 417 890 q 394 836 417 843 l 292 804 l 292 93 l 417 64 q 411 24 417 36 q 390 0 406 11 l 63 0 z "},"Ï":{"ha":468,"x_min":33,"x_max":450,"o":"m 33 1086 q 53 1131 33 1111 q 101 1150 72 1150 q 146 1133 129 1150 q 163 1088 163 1115 q 142 1042 163 1061 q 97 1022 122 1022 q 33 1086 33 1022 m 63 0 q 85 54 63 47 l 172 86 l 172 797 l 63 826 q 68 867 63 854 q 89 890 74 879 l 417 890 q 394 836 417 843 l 292 804 l 292 93 l 417 64 q 411 24 417 36 q 390 0 406 11 l 63 0 m 382 1022 q 368 1022 382 1022 q 337 1040 354 1022 q 320 1084 319 1057 q 340 1131 321 1111 q 388 1150 360 1150 q 433 1133 417 1150 q 450 1088 450 1115 q 430 1042 450 1061 q 382 1022 410 1022 z "},"Ð":{"ha":992,"x_min":68,"x_max":924,"o":"m 68 0 q 90 54 68 47 l 178 86 l 178 403 l 81 397 q 68 434 68 411 q 94 477 68 457 q 175 497 121 497 l 178 497 l 178 797 l 68 826 q 94 890 68 872 l 489 890 q 812 772 700 890 q 924 479 924 653 q 871 251 924 358 q 711 72 818 143 q 465 0 604 0 l 68 0 m 297 93 q 476 64 382 64 q 704 166 629 64 q 782 432 779 268 q 702 713 782 600 q 478 826 622 826 q 297 804 408 826 l 297 490 l 465 482 q 439 419 465 432 l 297 411 l 297 93 z "},"Ñ":{"ha":1039,"x_min":63,"x_max":997,"o":"m 63 0 q 85 54 63 47 l 172 86 l 172 797 l 63 826 q 68 867 63 854 q 89 890 74 879 l 299 890 l 796 218 l 796 797 l 686 826 q 692 867 686 854 q 713 890 697 879 l 997 890 q 975 836 997 843 l 879 804 l 879 38 q 867 6 879 17 q 837 -4 854 -4 q 806 4 819 -4 l 256 743 l 256 93 l 381 64 q 375 24 381 36 q 354 0 369 11 l 63 0 m 286 1024 q 333 1103 286 1063 q 444 1144 379 1144 q 548 1116 479 1144 q 649 1088 617 1088 q 746 1157 706 1088 q 760 1122 760 1142 q 708 1044 760 1086 q 593 1003 657 1003 q 493 1031 560 1003 q 394 1058 426 1058 q 300 992 339 1058 q 286 1024 286 1007 z "},"Ò":{"ha":1026,"x_min":67,"x_max":960,"o":"m 171 116 q 145 146 171 116 q 93 251 119 176 q 67 415 67 326 q 98 592 67 504 q 186 752 129 681 q 331 867 243 824 q 525 910 419 910 q 848 785 736 910 q 960 482 960 661 q 840 142 960 292 q 695 26 783 69 q 500 -17 607 -17 q 308 19 393 -17 q 171 116 222 56 m 506 842 q 432 842 506 842 q 282 733 357 842 q 207 454 207 625 q 288 167 207 283 q 517 51 369 51 q 742 159 665 51 q 818 438 818 267 q 737 726 818 610 q 506 842 656 842 m 304 1133 q 317 1173 304 1154 q 354 1192 329 1192 q 432 1164 379 1192 q 629 1049 485 1136 l 657 1032 q 658 1017 658 1029 q 639 993 658 1004 q 365 1079 401 1064 q 304 1133 304 1106 z "},"Ó":{"ha":1026,"x_min":67,"x_max":960,"o":"m 171 116 q 145 146 171 116 q 93 251 119 176 q 67 415 67 326 q 98 592 67 504 q 186 752 129 681 q 331 867 243 824 q 525 910 419 910 q 848 785 736 910 q 960 482 960 661 q 840 142 960 292 q 695 26 783 69 q 500 -17 607 -17 q 308 19 393 -17 q 171 116 222 56 m 506 842 q 432 842 506 842 q 282 733 357 842 q 207 454 207 625 q 288 167 207 283 q 517 51 369 51 q 742 159 665 51 q 818 438 818 267 q 737 726 818 610 q 506 842 656 842 m 390 993 q 371 1017 371 1004 q 372 1032 371 1029 q 642 1183 597 1168 q 681 1192 663 1192 q 713 1173 700 1192 q 725 1133 725 1154 q 469 1017 725 1092 l 390 993 z "},"Ô":{"ha":1026,"x_min":67,"x_max":960,"o":"m 171 116 q 145 146 171 116 q 93 251 119 176 q 67 415 67 326 q 98 592 67 504 q 186 752 129 681 q 331 867 243 824 q 525 910 419 910 q 848 785 736 910 q 960 482 960 661 q 840 142 960 292 q 695 26 783 69 q 500 -17 607 -17 q 308 19 393 -17 q 171 116 222 56 m 506 842 q 432 842 506 842 q 282 733 357 842 q 207 454 207 625 q 288 167 207 283 q 517 51 369 51 q 742 159 665 51 q 818 438 818 267 q 737 726 818 610 q 506 842 656 842 m 268 1024 l 269 1032 l 460 1165 q 522 1192 497 1192 q 582 1165 547 1192 l 772 1032 q 774 1024 774 1028 q 754 993 774 1004 l 521 1093 l 288 993 q 268 1024 268 1004 z "},"Õ":{"ha":1026,"x_min":67,"x_max":960,"o":"m 171 116 q 145 146 171 116 q 93 251 119 176 q 67 415 67 326 q 98 592 67 504 q 186 752 129 681 q 331 867 243 824 q 525 910 419 910 q 848 785 736 910 q 960 482 960 661 q 840 142 960 292 q 695 26 783 69 q 500 -17 607 -17 q 308 19 393 -17 q 171 116 222 56 m 506 842 q 432 842 506 842 q 282 733 357 842 q 207 454 207 625 q 288 167 207 283 q 517 51 369 51 q 742 159 665 51 q 818 438 818 267 q 737 726 818 610 q 506 842 656 842 m 285 1024 q 331 1103 285 1063 q 443 1144 378 1144 q 547 1116 478 1144 q 647 1088 615 1088 q 744 1157 704 1088 q 758 1122 758 1142 q 707 1044 758 1086 q 592 1003 656 1003 q 492 1031 558 1003 q 393 1058 425 1058 q 299 992 338 1058 q 285 1024 285 1007 z "},"Ö":{"ha":1026,"x_min":67,"x_max":960,"o":"m 171 116 q 145 146 171 116 q 93 251 119 176 q 67 415 67 326 q 98 592 67 504 q 186 752 129 681 q 331 867 243 824 q 525 910 419 910 q 848 785 736 910 q 960 482 960 661 q 840 142 960 292 q 695 26 783 69 q 500 -17 607 -17 q 308 19 393 -17 q 171 116 222 56 m 506 842 q 432 842 506 842 q 282 733 357 842 q 207 454 207 625 q 288 167 207 283 q 517 51 369 51 q 742 159 665 51 q 818 438 818 267 q 737 726 818 610 q 506 842 656 842 m 319 1086 q 339 1131 319 1111 q 387 1150 358 1150 q 432 1133 415 1150 q 449 1088 449 1115 q 428 1042 449 1061 q 383 1022 408 1022 q 319 1086 319 1022 m 607 1086 q 626 1131 607 1111 q 674 1150 646 1150 q 719 1133 703 1150 q 736 1088 736 1115 q 716 1042 736 1061 q 671 1022 696 1022 q 607 1086 607 1022 z "},"×":{"ha":644,"x_min":58,"x_max":586,"o":"m 58 90 l 265 371 l 69 619 q 140 676 83 676 l 321 446 l 490 676 q 575 639 560 676 l 379 374 l 586 110 q 515 53 572 53 l 324 297 l 143 53 q 58 90 74 53 z "},"Ø":{"ha":1028,"x_min":67,"x_max":960,"o":"m 186 753 q 331 867 243 824 q 540 910 419 910 q 757 856 660 910 l 874 1019 q 942 1004 924 1019 q 956 989 946 1000 l 826 807 q 960 482 960 683 q 840 142 960 292 q 695 26 783 69 q 488 -17 607 -17 q 276 33 369 -17 l 153 -139 q 71 -108 93 -139 l 206 82 q 67 402 67 203 q 186 753 67 601 m 514 842 q 282 733 357 842 q 207 458 207 625 q 278 182 207 292 l 697 771 q 514 842 619 842 m 335 117 q 511 51 408 51 q 742 160 665 51 q 818 432 818 268 q 753 703 818 596 l 335 117 z "},"Ù":{"ha":1001,"x_min":39,"x_max":967,"o":"m 39 826 q 44 867 39 854 q 65 890 50 879 l 399 890 q 376 836 399 843 l 274 804 l 274 283 q 508 57 274 57 q 694 109 632 57 q 757 286 757 161 l 757 797 l 647 826 q 653 867 647 854 q 674 890 658 879 l 967 890 q 944 836 967 843 l 849 804 l 849 297 q 763 69 849 156 q 501 -17 676 -17 q 238 65 326 -17 q 149 293 149 147 l 149 797 l 39 826 m 272 1133 q 285 1173 272 1154 q 322 1192 297 1192 q 400 1164 347 1192 q 597 1049 453 1136 l 625 1032 q 626 1017 626 1029 q 607 993 626 1004 q 333 1079 369 1064 q 272 1133 272 1106 z "},"Ú":{"ha":1001,"x_min":39,"x_max":967,"o":"m 39 826 q 44 867 39 854 q 65 890 50 879 l 399 890 q 376 836 399 843 l 274 804 l 274 283 q 508 57 274 57 q 694 109 632 57 q 757 286 757 161 l 757 797 l 647 826 q 653 867 647 854 q 674 890 658 879 l 967 890 q 944 836 967 843 l 849 804 l 849 297 q 763 69 849 156 q 501 -17 676 -17 q 238 65 326 -17 q 149 293 149 147 l 149 797 l 39 826 m 422 993 q 403 1017 403 1004 q 404 1032 403 1029 q 674 1183 629 1168 q 713 1192 694 1192 q 744 1173 732 1192 q 757 1133 757 1154 q 501 1017 757 1092 l 422 993 z "},"Û":{"ha":1001,"x_min":39,"x_max":967,"o":"m 39 826 q 44 867 39 854 q 65 890 50 879 l 399 890 q 376 836 399 843 l 274 804 l 274 283 q 508 57 274 57 q 694 109 632 57 q 757 286 757 161 l 757 797 l 647 826 q 653 867 647 854 q 674 890 658 879 l 967 890 q 944 836 967 843 l 849 804 l 849 297 q 763 69 849 156 q 501 -17 676 -17 q 238 65 326 -17 q 149 293 149 147 l 149 797 l 39 826 m 265 1024 l 267 1032 l 457 1165 q 519 1192 494 1192 q 579 1165 544 1192 l 769 1032 q 771 1024 771 1028 q 751 993 771 1004 l 518 1093 l 285 993 q 265 1024 265 1004 z "},"Ü":{"ha":1001,"x_min":39,"x_max":967,"o":"m 39 826 q 44 867 39 854 q 65 890 50 879 l 399 890 q 376 836 399 843 l 274 804 l 274 283 q 508 57 274 57 q 694 109 632 57 q 757 286 757 161 l 757 797 l 647 826 q 653 867 647 854 q 674 890 658 879 l 967 890 q 944 836 967 843 l 849 804 l 849 297 q 763 69 849 156 q 501 -17 676 -17 q 238 65 326 -17 q 149 293 149 147 l 149 797 l 39 826 m 310 1114 q 329 1158 310 1139 q 377 1178 349 1178 q 422 1160 406 1178 q 439 1116 439 1143 q 419 1069 439 1089 q 374 1050 399 1050 q 310 1114 310 1050 m 597 1114 q 617 1158 597 1139 q 665 1178 636 1178 q 710 1160 693 1178 q 726 1116 726 1143 q 706 1069 726 1089 q 661 1050 686 1050 q 597 1114 597 1050 z "},"Ý":{"ha":850,"x_min":-19,"x_max":857,"o":"m -19 826 q -14 867 -19 854 q 7 890 -8 879 l 351 890 q 329 836 351 843 l 226 804 l 451 447 l 639 797 l 529 826 q 535 867 529 854 q 556 890 540 879 l 857 890 q 835 836 857 843 l 732 804 l 489 361 l 489 93 l 614 64 q 608 24 614 36 q 588 0 603 11 l 260 0 q 282 54 260 47 l 369 86 l 369 361 l 90 797 l -19 826 m 314 993 q 294 1017 294 1004 q 296 1032 294 1029 q 565 1183 521 1168 q 605 1192 586 1192 q 636 1173 624 1192 q 649 1133 649 1154 q 393 1017 649 1092 l 314 993 z "},"Þ":{"ha":771,"x_min":63,"x_max":736,"o":"m 63 0 q 85 54 63 47 l 172 86 l 172 797 l 63 826 q 68 867 63 854 q 89 890 74 879 l 417 890 q 394 836 417 843 l 292 804 l 292 722 l 433 722 q 658 653 581 722 q 736 479 736 585 q 643 285 736 374 q 401 197 550 197 q 292 210 342 197 l 292 93 l 417 64 q 411 24 417 36 q 390 0 406 11 l 63 0 m 292 271 l 333 265 q 396 260 374 260 q 544 324 488 260 q 600 467 600 388 q 552 600 600 547 q 415 653 504 653 q 292 636 372 653 l 292 271 z "},"ß":{"ha":842,"x_min":36,"x_max":807,"o":"m 36 0 q 58 54 36 46 l 136 86 l 136 551 l 49 557 q 75 619 49 607 l 136 622 q 169 805 136 717 q 278 956 203 893 q 473 1019 354 1019 q 655 956 592 1019 q 718 799 718 893 q 694 702 718 743 q 638 639 671 661 q 572 597 606 617 q 492 507 492 553 q 524 448 492 474 q 603 401 557 422 q 695 356 649 381 q 774 284 742 331 q 807 166 807 238 q 742 39 807 94 q 576 -17 678 -17 q 404 26 475 -17 q 333 142 333 69 q 351 185 333 169 q 398 200 368 200 q 456 172 428 200 q 486 67 456 94 q 569 40 517 40 q 654 72 622 40 q 686 152 686 104 q 653 231 686 200 q 572 285 619 263 q 478 331 525 307 q 399 396 432 356 q 365 492 365 436 q 389 585 365 547 q 447 642 413 622 l 515 681 q 597 806 597 726 q 556 904 597 863 q 433 946 515 946 q 300 890 350 946 q 250 692 250 835 l 250 0 l 36 0 z "},"à":{"ha":649,"x_min":47,"x_max":649,"o":"m 47 124 q 247 331 47 285 l 411 368 l 411 439 q 311 582 411 582 q 224 551 250 582 q 197 454 197 521 q 146 438 174 438 q 100 456 118 438 q 82 501 82 475 q 156 598 82 554 q 329 642 229 642 q 477 593 429 642 q 525 429 525 544 l 525 125 q 563 71 525 71 q 625 94 593 71 l 649 61 q 510 -17 581 -17 q 411 121 411 -17 q 323 34 386 85 q 192 -17 260 -17 q 86 24 125 -17 q 47 124 47 64 m 254 278 q 178 233 204 265 q 153 165 153 201 q 176 102 153 128 q 240 76 199 76 q 330 106 281 76 q 411 171 379 136 l 411 315 l 254 278 m 167 908 q 161 933 161 918 q 181 968 161 949 q 217 988 200 988 q 247 981 235 988 q 322 911 271 969 l 475 744 q 446 714 475 721 l 251 836 q 167 908 181 882 z "},"á":{"ha":649,"x_min":47,"x_max":649,"o":"m 47 124 q 247 331 47 285 l 411 368 l 411 439 q 311 582 411 582 q 224 551 250 582 q 197 454 197 521 q 146 438 174 438 q 100 456 118 438 q 82 501 82 475 q 156 598 82 554 q 329 642 229 642 q 477 593 429 642 q 525 429 525 544 l 525 125 q 563 71 525 71 q 625 94 593 71 l 649 61 q 510 -17 581 -17 q 411 121 411 -17 q 323 34 386 85 q 192 -17 260 -17 q 86 24 125 -17 q 47 124 47 64 m 254 278 q 178 233 204 265 q 153 165 153 201 q 176 102 153 128 q 240 76 199 76 q 330 106 281 76 q 411 171 379 136 l 411 315 l 254 278 m 183 750 l 331 913 q 406 984 389 975 q 441 993 424 993 q 478 974 458 993 q 497 939 497 954 q 492 914 497 924 q 475 892 488 904 q 406 842 456 875 l 213 719 q 183 750 183 726 z "},"â":{"ha":649,"x_min":47,"x_max":649,"o":"m 47 124 q 247 331 47 285 l 411 368 l 411 439 q 311 582 411 582 q 224 551 250 582 q 197 454 197 521 q 146 438 174 438 q 100 456 118 438 q 82 501 82 475 q 156 598 82 554 q 329 642 229 642 q 477 593 429 642 q 525 429 525 544 l 525 125 q 563 71 525 71 q 625 94 593 71 l 649 61 q 510 -17 581 -17 q 411 121 411 -17 q 323 34 386 85 q 192 -17 260 -17 q 86 24 125 -17 q 47 124 47 64 m 125 750 l 279 956 q 338 993 307 993 q 396 956 369 993 l 550 750 q 539 728 550 736 q 521 719 528 719 l 338 871 l 154 719 q 136 728 147 719 q 125 750 125 736 m 254 278 q 178 233 204 265 q 153 165 153 201 q 176 102 153 128 q 240 76 199 76 q 330 106 281 76 q 411 171 379 136 l 411 315 l 254 278 z "},"ã":{"ha":649,"x_min":47,"x_max":649,"o":"m 47 124 q 247 331 47 285 l 411 368 l 411 439 q 311 582 411 582 q 224 551 250 582 q 197 454 197 521 q 146 438 174 438 q 100 456 118 438 q 82 501 82 475 q 156 598 82 554 q 329 642 229 642 q 477 593 429 642 q 525 429 525 544 l 525 125 q 563 71 525 71 q 625 94 593 71 l 649 61 q 510 -17 581 -17 q 411 121 411 -17 q 323 34 386 85 q 192 -17 260 -17 q 86 24 125 -17 q 47 124 47 64 m 83 776 q 130 856 83 815 q 242 897 176 897 q 345 869 276 897 q 446 840 414 840 q 543 910 503 840 q 557 875 557 894 q 506 797 557 839 q 390 756 454 756 q 290 783 357 756 q 192 811 224 811 q 97 744 136 811 q 83 776 83 760 m 254 278 q 178 233 204 265 q 153 165 153 201 q 176 102 153 128 q 240 76 199 76 q 330 106 281 76 q 411 171 379 136 l 411 315 l 254 278 z "},"ä":{"ha":649,"x_min":47,"x_max":649,"o":"m 47 124 q 247 331 47 285 l 411 368 l 411 439 q 311 582 411 582 q 224 551 250 582 q 197 454 197 521 q 146 438 174 438 q 100 456 118 438 q 82 501 82 475 q 156 598 82 554 q 329 642 229 642 q 477 593 429 642 q 525 429 525 544 l 525 125 q 563 71 525 71 q 625 94 593 71 l 649 61 q 510 -17 581 -17 q 411 121 411 -17 q 323 34 386 85 q 192 -17 260 -17 q 86 24 125 -17 q 47 124 47 64 m 129 839 q 149 883 129 864 q 197 903 168 903 q 242 885 225 903 q 258 841 258 868 q 238 794 258 814 q 193 775 218 775 q 129 839 129 775 m 254 278 q 178 233 204 265 q 153 165 153 201 q 176 102 153 128 q 240 76 199 76 q 330 106 281 76 q 411 171 379 136 l 411 315 l 254 278 m 417 839 q 436 883 417 864 q 484 903 456 903 q 529 885 513 903 q 546 841 546 868 q 526 794 546 814 q 481 775 506 775 q 417 839 417 775 z "},"å":{"ha":649,"x_min":47,"x_max":649,"o":"m 47 124 q 247 331 47 285 l 411 368 l 411 439 q 311 582 411 582 q 224 551 250 582 q 197 454 197 521 q 146 438 174 438 q 100 456 118 438 q 82 501 82 475 q 156 598 82 554 q 329 642 229 642 q 477 593 429 642 q 525 429 525 544 l 525 125 q 563 71 525 71 q 625 94 593 71 l 649 61 q 510 -17 581 -17 q 411 121 411 -17 q 323 34 386 85 q 192 -17 260 -17 q 86 24 125 -17 q 47 124 47 64 m 254 278 q 178 233 204 265 q 153 165 153 201 q 176 102 153 128 q 240 76 199 76 q 330 106 281 76 q 411 171 379 136 l 411 315 l 254 278 m 206 784 q 189 802 206 784 q 172 871 172 819 q 217 958 172 922 q 331 993 261 993 q 435 960 400 993 q 471 878 471 926 q 427 790 471 831 q 311 749 383 749 q 206 784 239 749 m 246 864 q 268 804 246 828 q 324 781 290 781 q 377 804 357 781 q 397 869 397 828 q 376 937 397 910 q 317 964 354 964 q 246 864 246 964 z "},"æ":{"ha":1007,"x_min":47,"x_max":953,"o":"m 47 124 q 247 331 47 285 l 411 368 l 411 439 q 311 582 411 582 q 224 551 250 582 q 197 454 197 521 q 146 438 174 438 q 100 456 118 438 q 82 501 82 475 q 156 598 82 554 q 344 642 229 642 q 501 556 460 642 q 707 642 588 642 q 867 583 800 642 q 953 342 947 517 l 535 342 q 591 143 535 210 q 736 76 647 76 q 839 100 785 76 q 925 156 893 124 l 949 122 q 842 27 913 71 q 706 -17 772 -17 q 440 140 510 -17 q 196 -17 315 -17 q 86 24 125 -17 q 47 124 47 64 m 254 278 q 178 233 204 265 q 153 165 153 201 q 176 102 153 128 q 238 76 199 76 q 426 175 328 76 q 407 314 407 232 l 254 278 m 536 400 l 821 404 q 784 539 819 496 q 696 582 749 582 q 536 400 554 582 z "},"ç":{"ha":640,"x_min":56,"x_max":597,"o":"m 56 313 q 142 546 56 450 q 361 642 228 642 q 519 597 449 642 q 590 475 590 551 q 574 428 590 444 q 526 411 557 411 q 468 439 496 411 q 353 582 463 582 q 185 331 185 582 q 238 144 185 213 q 385 76 290 76 q 478 97 431 76 q 574 156 542 124 l 597 122 l 581 104 q 353 -17 469 -17 l 340 -74 q 471 -108 417 -74 q 525 -212 525 -143 q 472 -328 525 -282 q 335 -375 419 -375 q 205 -341 250 -375 q 160 -258 160 -307 q 206 -208 160 -208 q 249 -228 229 -208 q 332 -331 249 -331 q 407 -306 379 -331 q 435 -232 435 -281 q 399 -158 435 -183 q 301 -132 364 -132 q 264 -135 294 -132 l 293 -12 q 117 93 175 4 q 56 313 58 182 z "},"è":{"ha":656,"x_min":56,"x_max":601,"o":"m 56 318 q 56 385 56 318 q 141 547 56 453 q 356 642 226 642 q 517 583 449 642 q 601 342 596 517 l 183 342 q 240 143 183 210 q 388 76 296 76 q 574 156 481 76 l 597 122 q 354 -17 474 -17 q 210 12 271 -17 q 117 89 150 40 q 56 318 56 183 m 185 400 l 469 404 q 433 539 468 496 q 344 582 397 582 q 185 400 203 582 m 197 914 q 193 939 193 924 q 213 974 193 954 q 249 993 232 993 q 279 986 267 993 q 354 917 303 975 l 507 750 q 478 719 507 726 l 283 842 q 197 914 210 889 z "},"é":{"ha":656,"x_min":56,"x_max":601,"o":"m 56 318 q 56 385 56 318 q 141 547 56 453 q 356 642 226 642 q 517 583 449 642 q 601 342 596 517 l 183 342 q 240 143 183 210 q 388 76 296 76 q 574 156 481 76 l 597 122 q 354 -17 474 -17 q 210 12 271 -17 q 117 89 150 40 q 56 318 56 183 m 185 400 l 469 404 q 433 539 468 496 q 344 582 397 582 q 185 400 203 582 m 213 750 l 361 913 q 433 983 414 972 q 470 993 453 993 q 507 974 488 993 q 526 939 526 954 q 522 914 526 924 q 504 892 517 904 q 436 842 489 878 l 242 719 q 213 750 213 726 z "},"ê":{"ha":656,"x_min":56,"x_max":601,"o":"m 56 318 q 56 385 56 318 q 141 547 56 453 q 356 642 226 642 q 517 583 449 642 q 601 342 596 517 l 183 342 q 240 143 183 210 q 388 76 296 76 q 574 156 481 76 l 597 122 q 354 -17 474 -17 q 210 12 271 -17 q 117 89 150 40 q 56 318 56 183 m 150 750 l 304 956 q 363 993 332 993 q 421 956 394 993 l 575 750 q 564 728 575 736 q 546 719 553 719 l 363 871 l 179 719 q 161 728 172 719 q 150 750 150 736 m 185 400 l 469 404 q 433 539 468 496 q 344 582 397 582 q 185 400 203 582 z "},"ë":{"ha":656,"x_min":56,"x_max":601,"o":"m 56 318 q 56 385 56 318 q 141 547 56 453 q 356 642 226 642 q 517 583 449 642 q 601 342 596 517 l 183 342 q 240 143 183 210 q 388 76 296 76 q 574 156 481 76 l 597 122 q 354 -17 474 -17 q 210 12 271 -17 q 117 89 150 40 q 56 318 56 183 m 160 839 q 179 883 160 864 q 227 903 199 903 q 272 885 256 903 q 289 841 289 868 q 269 794 289 814 q 224 775 249 775 q 160 839 160 775 m 185 400 l 469 404 q 433 539 468 496 q 344 582 397 582 q 185 400 203 582 m 447 839 q 467 883 447 864 q 515 903 486 903 q 560 885 543 903 q 576 841 576 868 q 556 794 576 814 q 511 775 536 775 q 447 839 447 775 z "},"ì":{"ha":388,"x_min":-22,"x_max":368,"o":"m -17 914 q -22 939 -22 924 q -3 974 -22 954 q 34 993 17 993 q 64 986 51 993 q 139 917 88 975 l 292 750 q 263 719 292 726 l 68 842 q -17 914 -3 888 m 40 0 q 63 54 40 46 l 140 86 l 140 529 l 63 561 q 40 615 40 569 q 181 626 135 626 q 254 551 254 626 l 254 93 l 368 64 q 363 24 368 36 q 342 0 357 11 l 40 0 z "},"í":{"ha":388,"x_min":40,"x_max":376,"o":"m 40 0 q 63 54 40 46 l 140 86 l 140 529 l 63 561 q 40 615 40 569 q 181 626 135 626 q 254 551 254 626 l 254 93 l 368 64 q 363 24 368 36 q 342 0 357 11 l 40 0 m 63 747 l 211 910 q 283 980 264 969 q 320 990 303 990 q 357 971 338 990 q 376 936 376 951 q 372 911 376 921 q 354 889 367 901 q 286 839 339 875 l 92 717 q 63 747 63 724 z "},"î":{"ha":388,"x_min":-44,"x_max":381,"o":"m -44 750 l 110 956 q 169 993 138 993 q 226 956 200 993 l 381 750 q 369 728 381 736 q 351 719 358 719 l 168 871 l -15 719 q -33 728 -22 719 q -44 750 -44 736 m 40 0 q 63 54 40 46 l 140 86 l 140 529 l 63 561 q 40 615 40 569 q 181 626 135 626 q 254 551 254 626 l 254 93 l 368 64 q 363 24 368 36 q 342 0 357 11 l 40 0 z "},"ï":{"ha":388,"x_min":-14,"x_max":375,"o":"m -14 839 q 6 883 -14 864 q 53 903 25 903 q 99 885 82 903 q 115 841 115 868 q 95 794 115 814 q 50 775 75 775 q -14 839 -14 775 m 40 0 q 63 54 40 46 l 140 86 l 140 529 l 63 561 q 40 615 40 569 q 181 626 135 626 q 254 551 254 626 l 254 93 l 368 64 q 363 24 368 36 q 342 0 357 11 l 40 0 m 246 839 q 265 883 246 864 q 313 903 285 903 q 358 885 342 903 q 375 841 375 868 q 355 794 375 814 q 310 775 335 775 q 246 839 246 775 z "},"ð":{"ha":789,"x_min":57,"x_max":713,"o":"m 361 -17 q 141 68 225 -17 q 57 276 57 153 q 132 491 57 399 q 342 583 207 583 q 491 560 425 583 q 590 503 557 536 q 527 680 588 586 q 361 851 467 774 l 142 718 q 90 751 90 718 l 310 885 q 83 986 215 947 q 128 1019 83 1019 q 251 988 174 1019 q 381 928 329 956 l 531 1019 q 582 986 582 1019 l 433 896 q 713 383 713 710 q 633 111 713 228 q 523 18 593 53 q 361 -17 453 -17 m 364 507 q 322 507 364 507 q 231 434 279 507 q 182 271 182 361 q 233 116 182 181 q 372 51 285 51 q 590 432 590 51 q 505 484 561 461 q 364 507 449 507 z "},"ñ":{"ha":797,"x_min":40,"x_max":785,"o":"m 40 0 q 63 54 40 46 l 140 86 l 140 529 l 63 561 q 40 615 40 569 q 181 626 135 626 q 254 551 254 626 l 254 504 q 490 642 382 642 q 626 591 581 642 q 671 415 671 540 l 671 93 l 785 64 q 779 24 785 36 q 758 0 774 11 l 457 0 q 479 54 457 46 l 557 86 l 557 415 q 436 543 557 543 q 254 447 350 543 l 254 93 l 368 64 q 363 24 368 36 q 342 0 357 11 l 40 0 m 167 776 q 213 856 167 815 q 325 897 260 897 q 428 869 360 897 q 529 840 497 840 q 626 910 586 840 q 640 875 640 894 q 589 797 640 839 q 474 756 538 756 q 374 783 440 756 q 275 811 307 811 q 181 744 219 811 q 167 776 167 760 z "},"ò":{"ha":742,"x_min":56,"x_max":689,"o":"m 356 -17 q 278 -17 356 -17 q 128 74 201 -17 q 56 306 56 164 q 151 544 56 447 q 388 642 246 642 q 609 553 529 642 q 689 332 689 465 q 599 91 689 199 q 356 -17 510 -17 m 362 582 q 314 582 362 582 q 224 503 267 582 q 181 309 181 425 q 233 118 181 193 q 377 43 286 43 q 515 115 468 43 q 561 303 561 186 q 509 501 561 421 q 362 582 457 582 m 222 914 q 217 939 217 924 q 236 974 217 954 q 273 993 256 993 q 303 986 290 993 q 378 917 326 975 l 531 750 q 501 719 531 726 l 307 842 q 222 914 236 888 z "},"ó":{"ha":742,"x_min":56,"x_max":689,"o":"m 356 -17 q 278 -17 356 -17 q 128 74 201 -17 q 56 306 56 164 q 151 544 56 447 q 388 642 246 642 q 609 553 529 642 q 689 332 689 465 q 599 91 689 199 q 356 -17 510 -17 m 362 582 q 314 582 362 582 q 224 503 267 582 q 181 309 181 425 q 233 118 181 193 q 377 43 286 43 q 515 115 468 43 q 561 303 561 186 q 509 501 561 421 q 362 582 457 582 m 267 750 l 414 913 q 490 984 472 975 q 524 993 507 993 q 561 974 542 993 q 581 939 581 954 q 576 914 581 924 q 558 892 571 904 q 489 842 539 875 l 296 719 q 267 750 267 726 z "},"ô":{"ha":742,"x_min":56,"x_max":689,"o":"m 356 -17 q 278 -17 356 -17 q 128 74 201 -17 q 56 306 56 164 q 151 544 56 447 q 388 642 246 642 q 609 553 529 642 q 689 332 689 465 q 599 91 689 199 q 356 -17 510 -17 m 169 750 l 324 956 q 383 993 351 993 q 440 956 414 993 l 594 750 q 583 728 594 736 q 565 719 572 719 l 382 871 l 199 719 q 181 728 192 719 q 169 750 169 736 m 362 582 q 314 582 362 582 q 224 503 267 582 q 181 309 181 425 q 233 118 181 193 q 377 43 286 43 q 515 115 468 43 q 561 303 561 186 q 509 501 561 421 q 362 582 457 582 z "},"õ":{"ha":742,"x_min":56,"x_max":689,"o":"m 356 -17 q 278 -17 356 -17 q 128 74 201 -17 q 56 306 56 164 q 151 544 56 447 q 388 642 246 642 q 609 553 529 642 q 689 332 689 465 q 599 91 689 199 q 356 -17 510 -17 m 136 776 q 183 856 136 815 q 294 897 229 897 q 398 869 329 897 q 499 840 467 840 q 596 910 556 840 q 610 875 610 894 q 558 797 610 839 q 443 756 507 756 q 343 783 410 756 q 244 811 276 811 q 150 744 189 811 q 136 776 136 760 m 362 582 q 314 582 362 582 q 224 503 267 582 q 181 309 181 425 q 233 118 181 193 q 377 43 286 43 q 515 115 468 43 q 561 303 561 186 q 509 501 561 421 q 362 582 457 582 z "},"ö":{"ha":742,"x_min":56,"x_max":689,"o":"m 356 -17 q 278 -17 356 -17 q 128 74 201 -17 q 56 306 56 164 q 151 544 56 447 q 388 642 246 642 q 609 553 529 642 q 689 332 689 465 q 599 91 689 199 q 356 -17 510 -17 m 172 839 q 192 883 172 864 q 240 903 211 903 q 285 885 268 903 q 301 841 301 868 q 281 794 301 814 q 236 775 261 775 q 172 839 172 775 m 362 582 q 314 582 362 582 q 224 503 267 582 q 181 309 181 425 q 233 118 181 193 q 377 43 286 43 q 515 115 468 43 q 561 303 561 186 q 509 501 561 421 q 362 582 457 582 m 460 839 q 479 883 460 864 q 527 903 499 903 q 572 885 556 903 q 589 841 589 868 q 569 794 589 814 q 524 775 549 775 q 460 839 460 775 z "},"÷":{"ha":711,"x_min":74,"x_max":638,"o":"m 93 328 q 74 373 74 343 q 78 414 74 403 l 618 414 q 638 369 638 399 q 633 328 638 339 l 93 328 m 350 92 q 333 92 350 92 q 297 112 317 92 q 278 165 278 132 q 300 220 278 199 q 356 242 322 242 q 409 222 389 242 q 429 168 429 201 q 406 113 429 135 q 350 92 383 92 m 350 503 q 333 503 350 503 q 297 523 317 503 q 278 576 278 543 q 300 631 278 610 q 356 653 322 653 q 409 633 389 653 q 429 579 429 613 q 406 524 429 546 q 350 503 383 503 z "},"ø":{"ha":739,"x_min":56,"x_max":683,"o":"m 56 313 q 149 542 56 446 q 376 639 243 639 q 524 608 461 639 l 594 713 q 672 685 650 713 l 590 565 q 683 338 683 476 q 594 92 683 199 q 360 -14 506 -14 q 211 14 275 -14 l 146 -82 q 68 -54 90 -82 l 146 58 q 56 313 56 140 m 179 304 q 211 154 179 222 l 474 536 q 365 579 429 579 q 179 304 179 579 m 261 86 q 371 46 310 46 q 511 117 465 46 q 557 291 557 188 q 524 468 557 394 l 261 86 z "},"ù":{"ha":782,"x_min":21,"x_max":769,"o":"m 21 615 q 161 626 115 626 q 235 551 235 626 l 235 217 q 263 116 235 149 q 356 83 290 83 q 532 178 438 83 l 532 529 l 454 561 q 432 615 432 569 q 572 626 558 626 q 646 551 646 626 l 646 125 q 683 71 646 71 q 746 94 714 71 l 769 61 q 631 -17 701 -17 q 532 121 532 -17 q 431 29 496 75 q 303 -17 365 -17 q 167 35 213 -17 q 121 211 121 86 l 121 529 l 43 561 q 21 615 21 569 m 219 914 q 214 939 214 924 q 233 974 214 954 q 270 993 253 993 q 300 986 288 993 q 375 917 324 975 l 528 750 q 499 719 528 726 l 304 842 q 219 914 233 888 z "},"ú":{"ha":782,"x_min":21,"x_max":769,"o":"m 21 615 q 161 626 115 626 q 235 551 235 626 l 235 217 q 263 116 235 149 q 356 83 290 83 q 532 178 438 83 l 532 529 l 454 561 q 432 615 432 569 q 572 626 558 626 q 646 551 646 626 l 646 125 q 683 71 646 71 q 746 94 714 71 l 769 61 q 631 -17 701 -17 q 532 121 532 -17 q 431 29 496 75 q 303 -17 365 -17 q 167 35 213 -17 q 121 211 121 86 l 121 529 l 43 561 q 21 615 21 569 m 276 750 l 425 913 q 497 983 478 972 q 534 993 517 993 q 571 974 551 993 q 590 939 590 954 q 585 914 590 924 q 568 892 581 904 q 500 842 553 878 l 306 719 q 276 750 276 726 z "},"û":{"ha":782,"x_min":21,"x_max":769,"o":"m 21 615 q 161 626 115 626 q 235 551 235 626 l 235 217 q 263 116 235 149 q 356 83 290 83 q 532 178 438 83 l 532 529 l 454 561 q 432 615 432 569 q 572 626 558 626 q 646 551 646 626 l 646 125 q 683 71 646 71 q 746 94 714 71 l 769 61 q 631 -17 701 -17 q 532 121 532 -17 q 431 29 496 75 q 303 -17 365 -17 q 167 35 213 -17 q 121 211 121 86 l 121 529 l 43 561 q 21 615 21 569 m 167 750 l 321 956 q 380 993 349 993 q 438 956 411 993 l 592 750 q 581 728 592 736 q 563 719 569 719 l 379 871 l 196 719 q 178 728 189 719 q 167 750 167 736 z "},"ü":{"ha":782,"x_min":21,"x_max":769,"o":"m 21 615 q 161 626 115 626 q 235 551 235 626 l 235 217 q 263 116 235 149 q 356 83 290 83 q 532 178 438 83 l 532 529 l 454 561 q 432 615 432 569 q 572 626 558 626 q 646 551 646 626 l 646 125 q 683 71 646 71 q 746 94 714 71 l 769 61 q 631 -17 701 -17 q 532 121 532 -17 q 431 29 496 75 q 303 -17 365 -17 q 167 35 213 -17 q 121 211 121 86 l 121 529 l 43 561 q 21 615 21 569 m 171 839 q 190 883 171 864 q 238 903 210 903 q 283 885 267 903 q 300 841 300 868 q 280 794 300 814 q 235 775 260 775 q 171 839 171 775 m 458 839 q 478 883 458 864 q 526 903 497 903 q 571 885 554 903 q 588 841 588 868 q 567 794 588 814 q 522 775 547 775 q 458 839 458 775 z "},"ý":{"ha":686,"x_min":-7,"x_max":692,"o":"m 78 -375 q 16 -357 39 -375 q -7 -313 -7 -339 q 10 -267 -7 -287 l 96 -267 q 212 -230 182 -267 q 317 -6 242 -193 l 97 522 l 1 551 q 7 592 1 579 q 28 615 13 604 l 306 615 q 283 561 306 569 l 208 529 l 375 126 l 531 522 l 426 551 q 432 592 426 579 q 453 615 438 604 l 692 615 q 669 561 692 571 l 601 529 l 390 0 q 246 -260 332 -146 q 78 -375 160 -375 m 278 750 l 425 913 q 501 984 483 975 q 535 993 518 993 q 572 974 553 993 q 592 939 592 954 q 587 914 592 924 q 569 892 582 904 q 500 842 550 875 l 307 719 q 278 750 278 726 z "},"þ":{"ha":735,"x_min":-1,"x_max":679,"o":"m -1 -358 q 21 -304 -1 -312 l 99 -272 l 99 922 l 21 954 q -1 1008 -1 963 q 139 1019 93 1019 q 213 944 213 1019 l 213 504 q 440 642 339 642 q 622 554 565 642 q 679 327 679 467 q 590 85 679 188 q 353 -17 501 -17 q 213 3 281 -17 l 213 -265 l 326 -294 q 321 -335 326 -322 q 300 -358 315 -347 l -1 -358 m 213 99 q 349 47 267 47 q 501 119 453 47 q 550 317 550 192 q 390 543 550 543 q 213 447 308 543 l 213 99 z "},"ÿ":{"ha":686,"x_min":-7,"x_max":692,"o":"m 78 -375 q 16 -357 39 -375 q -7 -313 -7 -339 q 10 -267 -7 -287 l 96 -267 q 212 -230 182 -267 q 317 -6 242 -193 l 97 522 l 1 551 q 7 592 1 579 q 28 615 13 604 l 306 615 q 283 561 306 569 l 208 529 l 375 126 l 531 522 l 426 551 q 432 592 426 579 q 453 615 438 604 l 692 615 q 669 561 692 571 l 601 529 l 390 0 q 246 -260 332 -146 q 78 -375 160 -375 m 164 839 q 183 883 164 864 q 231 903 203 903 q 276 885 260 903 q 293 841 293 868 q 273 794 293 814 q 228 775 253 775 q 164 839 164 775 m 451 839 q 471 883 451 864 q 519 903 490 903 q 564 885 547 903 q 581 841 581 868 q 560 794 581 814 q 515 775 540 775 q 451 839 451 775 z "},"ı":{"ha":388,"x_min":40,"x_max":368,"o":"m 40 0 q 63 54 40 46 l 140 86 l 140 529 l 63 561 q 40 615 40 569 q 181 626 135 626 q 254 551 254 626 l 254 93 l 368 64 q 363 24 368 36 q 342 0 357 11 l 40 0 z "},"Ł":{"ha":763,"x_min":67,"x_max":735,"o":"m 67 0 q 89 54 67 47 l 176 86 l 176 426 l 88 411 q 67 460 67 428 l 67 464 l 176 483 l 176 797 l 67 826 q 72 867 67 854 q 93 890 78 879 l 421 890 q 399 836 421 843 l 296 804 l 296 504 l 456 533 q 476 488 476 517 l 476 481 l 296 449 l 296 93 l 642 64 l 671 233 q 711 228 699 233 q 735 207 724 222 l 735 0 l 67 0 z "},"ł":{"ha":411,"x_min":43,"x_max":371,"o":"m 43 0 q 65 54 43 46 l 143 86 l 143 479 l 64 461 q 43 510 43 478 l 43 514 l 143 536 l 143 922 l 65 954 q 43 1008 43 963 q 183 1019 169 1019 q 257 944 257 1019 l 257 563 l 349 583 q 369 538 369 567 l 369 531 l 257 506 l 257 93 l 371 64 q 365 24 371 36 q 344 0 360 11 l 43 0 z "},"Œ":{"ha":1326,"x_min":67,"x_max":1271,"o":"m 171 116 q 145 146 171 116 q 93 251 119 176 q 67 415 67 326 q 98 592 67 504 q 186 752 129 681 q 331 867 243 824 q 510 910 419 910 q 671 890 601 910 l 1228 890 l 1228 678 q 1174 700 1181 678 l 1128 826 l 818 804 l 818 488 l 1082 488 l 1110 571 q 1142 567 1133 571 q 1164 549 1151 563 l 1164 354 q 1142 336 1151 340 q 1110 332 1133 332 l 1082 415 l 818 415 l 818 93 l 1164 64 l 1207 233 q 1247 228 1235 233 q 1271 207 1260 222 l 1271 0 l 625 0 q 480 -17 567 -17 q 308 19 393 -17 q 171 116 222 56 m 514 842 q 282 733 357 842 q 207 454 207 625 q 288 167 207 283 q 511 51 369 51 q 699 114 621 51 l 699 771 q 514 842 621 842 z "},"œ":{"ha":1161,"x_min":56,"x_max":1107,"o":"m 359 -17 q 280 -17 359 -17 q 128 74 201 -17 q 56 306 56 164 q 151 544 56 447 q 379 642 246 642 q 631 528 547 642 q 861 642 718 642 q 1022 583 954 642 q 1107 342 1101 517 l 689 342 q 745 143 689 210 q 890 76 801 76 q 993 100 939 76 q 1079 156 1047 124 l 1103 122 q 997 27 1067 71 q 860 -17 926 -17 q 613 107 686 -17 q 359 -17 517 -17 m 362 582 q 314 582 362 582 q 224 503 267 582 q 181 309 181 425 q 233 118 181 193 q 377 43 286 43 q 515 115 468 43 q 561 303 561 186 q 509 501 561 421 q 362 582 457 582 m 690 400 l 975 404 q 938 539 974 496 q 850 582 903 582 q 690 400 708 582 z "},"Š":{"ha":726,"x_min":60,"x_max":663,"o":"m 60 69 l 82 257 q 149 276 101 276 q 161 275 157 276 l 176 106 q 246 67 199 86 q 364 49 293 49 q 485 94 435 49 q 535 210 535 139 q 490 322 535 281 q 381 387 444 363 q 253 439 317 411 q 144 522 189 467 q 99 673 99 578 q 167 839 99 768 q 358 910 236 910 q 474 892 414 910 q 556 865 535 875 q 622 832 576 856 l 596 643 q 531 672 535 647 l 511 792 q 364 844 439 844 q 249 805 289 844 q 208 694 208 765 q 299 567 208 613 q 388 528 339 547 q 484 488 436 510 q 572 437 532 465 q 638 360 613 408 q 663 247 663 311 q 583 60 663 138 q 360 -17 504 -17 q 60 69 217 -17 m 106 1161 q 125 1192 106 1181 l 358 1092 l 592 1192 q 611 1161 611 1181 l 610 1153 l 419 1019 q 358 993 382 993 q 297 1019 333 993 l 107 1153 q 106 1161 106 1157 z "},"š":{"ha":575,"x_min":47,"x_max":524,"o":"m 47 142 q 65 185 47 169 q 112 200 82 200 q 169 172 142 200 q 201 68 171 96 q 285 40 232 40 q 369 72 338 40 q 399 153 400 104 q 365 231 399 203 q 284 276 332 260 q 189 313 236 293 q 109 373 142 332 q 76 479 76 414 q 132 593 76 544 q 283 642 188 642 q 442 608 379 642 q 504 524 504 574 q 487 483 504 500 q 442 467 469 467 q 390 483 414 467 q 289 585 385 585 q 211 558 240 585 q 182 489 182 531 q 217 419 182 447 q 301 374 251 392 q 401 334 351 356 q 486 272 451 313 q 521 163 521 231 q 456 39 521 94 q 290 -17 392 -17 q 118 26 189 -17 q 47 142 47 69 m 315 719 l 307 719 q 253 757 283 717 l 99 963 q 110 985 99 976 q 128 993 121 993 l 311 842 l 494 993 q 513 985 501 993 q 524 963 524 976 l 369 757 q 315 719 342 719 z "},"Ÿ":{"ha":850,"x_min":-19,"x_max":857,"o":"m -19 826 q -14 867 -19 854 q 7 890 -8 879 l 351 890 q 329 836 351 843 l 226 804 l 451 447 l 639 797 l 529 826 q 535 867 529 854 q 556 890 540 879 l 857 890 q 835 836 857 843 l 732 804 l 489 361 l 489 93 l 614 64 q 608 24 614 36 q 588 0 603 11 l 260 0 q 282 54 260 47 l 369 86 l 369 361 l 90 797 l -19 826 m 222 1114 q 242 1158 222 1139 q 290 1178 261 1178 q 335 1160 318 1178 q 351 1116 351 1143 q 331 1069 351 1089 q 286 1050 311 1050 q 222 1114 222 1050 m 510 1114 q 529 1158 510 1139 q 577 1178 549 1178 q 622 1160 606 1178 q 639 1116 639 1143 q 619 1069 639 1089 q 574 1050 599 1050 q 510 1114 510 1050 z "},"Ž":{"ha":800,"x_min":53,"x_max":740,"o":"m 53 35 q 63 64 53 50 l 549 804 l 179 826 l 133 686 q 79 664 126 664 l 79 890 l 681 890 q 715 857 715 890 q 706 826 715 840 l 224 93 l 633 64 l 676 247 q 717 242 704 247 q 740 221 729 236 l 740 0 l 89 0 q 53 35 53 0 m 169 1153 q 168 1167 168 1154 q 188 1192 168 1181 l 421 1092 l 654 1192 q 674 1167 674 1181 q 672 1153 674 1154 l 482 1019 q 420 993 444 993 q 360 1019 396 993 l 169 1153 z "},"ž":{"ha":608,"x_min":39,"x_max":561,"o":"m 39 35 q 49 64 39 50 l 392 535 l 161 551 l 140 453 q 88 431 136 431 l 69 615 l 508 615 q 534 606 525 615 q 543 581 543 596 q 533 551 543 565 l 192 81 l 461 64 l 476 199 q 543 172 521 199 l 561 0 l 75 0 q 39 35 39 0 m 124 963 q 135 985 124 976 q 153 993 146 993 l 336 842 l 519 993 q 538 985 526 993 q 549 963 549 976 l 394 757 q 338 719 368 719 q 278 757 307 719 l 124 963 z "},"ƒ":{"ha":444,"x_min":-139,"x_max":561,"o":"m -117 -256 q -128 -244 -117 -256 q -139 -203 -139 -233 q -122 -150 -139 -172 l -44 -150 q 86 -139 58 -150 q 151 -4 143 -115 q 154 64 154 26 l 154 381 l 25 381 q 39 435 25 415 l 154 435 l 154 622 q 256 889 154 758 q 478 1019 357 1019 q 540 997 518 1019 q 561 944 561 975 q 544 892 561 914 l 467 892 q 339 882 364 892 q 272 761 283 861 q 268 678 268 726 l 268 435 l 424 435 q 410 381 424 394 l 268 381 l 268 119 q 165 -149 268 -21 q -56 -278 61 -278 q -117 -256 -96 -278 z "},"ˆ":{"ha":481,"x_min":28,"x_max":453,"o":"m 28 750 l 182 956 q 240 993 210 993 q 299 956 274 989 l 453 750 q 442 728 453 736 q 424 719 431 719 l 240 871 l 57 719 q 39 728 50 719 q 28 750 28 736 z "},"ˇ":{"ha":481,"x_min":28,"x_max":453,"o":"m 28 963 q 39 985 28 976 q 57 993 50 993 l 240 842 l 424 993 q 442 985 431 993 q 453 963 453 976 l 299 757 q 242 719 272 719 q 182 757 211 719 l 28 963 z "},"˘":{"ha":475,"x_min":28,"x_max":447,"o":"m 28 935 q 71 967 28 967 q 122 894 74 936 q 238 851 171 851 q 351 888 306 851 q 404 967 396 924 q 447 935 447 967 q 383 813 447 871 q 237 754 318 754 q 92 813 156 754 q 28 935 28 871 z "},"˙":{"ha":238,"x_min":35,"x_max":203,"o":"m 115 744 q 96 744 115 744 q 56 767 78 744 q 35 826 35 789 q 60 886 35 863 q 122 910 85 910 q 181 888 158 910 q 203 829 203 865 q 177 769 203 793 q 115 744 151 744 z "},"˚":{"ha":354,"x_min":28,"x_max":326,"o":"m 61 784 q 44 802 61 784 q 28 871 28 819 q 72 958 28 922 q 186 993 117 993 q 291 960 256 993 q 326 878 326 926 q 283 790 326 831 q 167 749 239 749 q 61 784 94 749 m 101 864 q 124 804 101 828 q 179 781 146 781 q 233 804 213 781 q 253 869 253 828 q 231 937 253 910 q 172 964 210 964 q 101 864 101 964 z "},"˛":{"ha":438,"x_min":40,"x_max":408,"o":"m 224 -367 q 85 -317 131 -367 q 40 -193 40 -268 q 103 -45 40 -118 q 238 38 167 28 l 238 -3 q 159 -74 189 -22 q 129 -179 129 -126 q 166 -260 129 -232 q 244 -287 203 -287 q 369 -253 313 -287 l 386 -242 l 408 -274 q 322 -337 382 -307 q 224 -367 263 -367 z "},"˜":{"ha":806,"x_min":144,"x_max":618,"o":"m 144 776 q 191 856 144 815 q 303 897 238 897 q 406 869 338 897 q 507 840 475 840 q 604 910 564 840 q 618 875 618 894 q 567 797 618 839 q 451 756 515 756 q 351 783 418 756 q 253 811 285 811 q 158 744 197 811 q 144 776 144 760 z "},"˝":{"ha":604,"x_min":28,"x_max":576,"o":"m 28 750 l 175 913 q 251 984 233 975 q 285 993 268 993 q 322 974 303 993 q 342 939 342 954 q 337 914 342 924 q 319 892 332 904 q 250 842 300 875 l 57 719 q 28 750 28 726 m 263 750 l 411 913 q 483 983 464 972 q 520 993 503 993 q 557 974 538 993 q 576 939 576 954 q 572 914 576 924 q 554 892 567 904 q 486 842 539 878 l 292 719 q 263 750 263 726 z "},"π":{"ha":825,"x_min":42,"x_max":796,"o":"m 42 0 q 64 54 42 46 l 142 86 l 142 522 l 42 551 q 47 592 42 579 q 68 615 53 604 l 786 615 q 764 561 786 568 l 672 528 l 672 125 q 710 71 672 71 q 772 94 740 71 l 796 61 q 657 -17 728 -17 q 558 121 558 -17 l 558 529 l 256 529 l 256 93 l 369 64 q 364 24 369 36 q 343 0 358 11 l 42 0 z "}," ":{"ha":596,"x_min":0,"x_max":0,"o":""}," ":{"ha":1192,"x_min":0,"x_max":0,"o":""}," ":{"ha":596,"x_min":0,"x_max":0,"o":""}," ":{"ha":1192,"x_min":0,"x_max":0,"o":""}," ":{"ha":397,"x_min":0,"x_max":0,"o":""}," ":{"ha":297,"x_min":0,"x_max":0,"o":""}," ":{"ha":199,"x_min":0,"x_max":0,"o":""}," ":{"ha":199,"x_min":0,"x_max":0,"o":""}," ":{"ha":149,"x_min":0,"x_max":0,"o":""}," ":{"ha":238,"x_min":0,"x_max":0,"o":""}," ":{"ha":65,"x_min":0,"x_max":0,"o":""},"‐":{"ha":500,"x_min":82,"x_max":419,"o":"m 346 306 l 192 308 q 86 303 132 308 q 82 329 82 310 l 82 344 q 156 419 82 419 l 310 417 q 415 422 369 417 q 419 396 419 401 l 419 381 q 346 306 419 306 z "},"‑":{"ha":500,"x_min":82,"x_max":419,"o":"m 346 306 l 192 308 q 86 303 132 308 q 82 329 82 310 l 82 344 q 156 419 82 419 l 310 417 q 415 422 369 417 q 419 396 419 401 l 419 381 q 346 306 419 306 z "},"‒":{"ha":500,"x_min":82,"x_max":419,"o":"m 346 306 l 192 308 q 86 303 132 308 q 82 329 82 310 l 82 344 q 156 419 82 419 l 310 417 q 415 422 369 417 q 419 396 419 401 l 419 381 q 346 306 419 306 z "},"–":{"ha":953,"x_min":88,"x_max":860,"o":"m 107 326 q 88 374 88 342 q 92 415 88 406 l 840 415 q 860 368 860 400 q 856 326 860 336 l 107 326 z "},"—":{"ha":1175,"x_min":88,"x_max":1082,"o":"m 107 326 q 88 374 88 342 q 92 415 88 406 l 1063 415 q 1082 368 1082 400 q 1078 326 1082 336 l 107 326 z "},"‘":{"ha":281,"x_min":56,"x_max":258,"o":"m 163 653 q 83 694 110 653 q 56 792 56 736 q 80 891 56 847 q 139 956 104 935 q 243 999 206 999 q 258 968 258 994 q 176 917 203 950 q 149 850 149 885 q 188 783 149 815 q 228 721 228 750 q 210 672 228 692 q 163 653 192 653 z "},"’":{"ha":299,"x_min":54,"x_max":257,"o":"m 54 679 q 137 730 110 697 q 164 797 164 763 q 124 865 164 832 q 85 927 85 899 q 103 975 85 956 q 150 994 121 994 q 229 953 201 994 q 257 861 257 913 q 240 771 257 810 q 200 710 224 732 q 147 674 176 689 q 69 649 101 649 q 54 679 54 653 z "},"‚":{"ha":297,"x_min":38,"x_max":240,"o":"m 58 -208 l 53 -207 q 38 -176 38 -206 q 120 -126 93 -158 q 147 -64 147 -93 q 135 -17 147 -35 q 108 8 122 0 q 68 67 68 33 q 85 119 68 100 q 132 138 103 138 q 213 97 185 138 q 240 1 240 56 q 218 -96 240 -53 q 164 -161 196 -139 q 58 -208 99 -208 z "},"“":{"ha":511,"x_min":56,"x_max":489,"o":"m 163 653 q 83 694 110 653 q 56 792 56 736 q 80 891 56 847 q 139 956 104 935 q 243 999 206 999 q 258 968 258 994 q 176 917 203 950 q 149 850 149 885 q 188 783 149 815 q 228 721 228 750 q 210 672 228 692 q 163 653 192 653 m 393 653 q 313 694 340 653 q 286 792 286 736 q 310 891 286 847 q 369 956 335 935 q 474 999 436 999 q 489 968 489 994 q 406 917 433 950 q 379 850 379 885 q 419 783 379 815 q 458 721 458 750 q 440 672 458 692 q 393 653 422 653 z "},"”":{"ha":529,"x_min":54,"x_max":488,"o":"m 54 679 q 137 730 110 697 q 164 797 164 763 q 124 865 164 832 q 85 927 85 899 q 103 975 85 956 q 150 994 121 994 q 229 953 201 994 q 257 861 257 913 q 240 771 257 810 q 200 710 224 732 q 147 674 176 689 q 69 649 101 649 q 54 679 54 653 m 285 679 q 367 730 340 697 q 394 797 394 763 q 355 865 394 832 q 315 927 315 899 q 333 975 315 956 q 381 994 351 994 q 460 953 432 994 q 488 861 488 913 q 471 771 488 810 q 431 710 454 732 q 378 674 407 689 q 300 649 332 649 q 285 679 285 653 z "},"„":{"ha":528,"x_min":38,"x_max":471,"o":"m 38 -176 q 120 -126 93 -158 q 147 -60 147 -93 q 108 10 147 -26 q 68 73 68 46 q 85 119 68 100 q 132 138 103 138 l 133 138 q 212 97 183 138 q 240 3 240 57 l 240 -1 q 218 -97 240 -54 q 164 -161 196 -139 q 58 -208 101 -208 l 53 -208 q 38 -178 38 -204 l 38 -176 m 268 -178 q 351 -127 324 -160 q 378 -60 378 -94 q 338 8 378 -25 q 299 70 299 42 q 317 118 299 99 q 364 138 335 138 q 443 97 415 138 q 471 4 471 56 q 454 -86 471 -47 q 414 -147 438 -125 q 361 -183 390 -168 q 283 -208 315 -208 q 268 -178 268 -204 z "},"†":{"ha":658,"x_min":35,"x_max":624,"o":"m 57 528 q 35 588 35 556 q 57 649 35 621 l 308 607 l 267 888 q 328 910 297 910 q 389 888 358 910 l 350 607 l 601 649 q 624 588 624 621 q 601 528 624 556 l 350 567 l 389 328 q 367 269 367 300 q 379 221 367 239 l 357 -354 q 301 -375 342 -375 l 276 221 q 289 269 289 239 q 267 328 289 300 l 308 567 l 57 528 z "},"‡":{"ha":683,"x_min":47,"x_max":636,"o":"m 69 -114 q 47 -53 47 -86 q 69 7 47 -21 l 321 -32 l 279 207 q 301 267 301 235 q 279 328 301 300 l 321 567 l 69 528 q 47 588 47 556 q 69 649 47 621 l 321 607 l 279 888 q 340 910 310 910 q 401 888 371 910 l 363 607 l 614 649 q 636 588 636 621 q 614 528 636 556 l 363 567 l 401 328 q 379 267 379 300 q 401 207 379 235 l 363 -32 l 614 7 q 636 -53 636 -21 q 614 -114 636 -86 l 363 -72 l 401 -353 q 340 -375 371 -375 q 279 -353 310 -375 l 321 -72 l 69 -114 z "},"•":{"ha":436,"x_min":85,"x_max":353,"o":"m 213 238 q 183 238 213 238 q 119 273 153 238 q 85 367 85 308 q 126 465 85 425 q 225 504 167 504 q 318 468 283 504 q 353 374 353 432 q 313 276 353 315 q 213 238 272 238 z "},"…":{"ha":842,"x_min":67,"x_max":774,"o":"m 139 -17 q 122 -17 139 -17 q 86 3 106 -17 q 67 57 67 24 q 89 112 67 90 q 144 133 111 133 q 198 113 178 133 q 218 60 218 93 q 195 5 218 26 q 139 -17 172 -17 m 417 -17 q 400 -17 417 -17 q 364 3 383 -17 q 344 57 344 24 q 367 112 344 90 q 422 133 389 133 q 476 113 456 133 q 496 60 496 93 q 473 5 496 26 q 417 -17 450 -17 m 694 -17 q 678 -17 694 -17 q 642 3 661 -17 q 622 57 622 24 q 644 112 622 90 q 700 133 667 133 q 753 113 733 133 q 774 60 774 93 q 751 5 774 26 q 694 -17 728 -17 z "}," ":{"ha":238,"x_min":0,"x_max":0,"o":""},"‰":{"ha":1365,"x_min":68,"x_max":1322,"o":"m 247 481 q 203 481 247 481 q 114 536 160 481 q 68 674 68 592 q 121 828 68 757 q 261 900 174 900 q 393 846 349 900 q 438 706 438 792 q 385 551 438 621 q 247 481 333 481 m 75 21 l 836 910 q 906 872 890 910 l 144 -17 q 75 21 90 -17 m 253 863 q 231 863 253 863 q 185 817 210 863 q 161 697 161 771 q 186 570 161 622 q 254 518 211 518 q 322 565 297 518 q 346 684 346 611 q 321 810 346 757 q 253 863 296 863 m 715 7 q 671 7 715 7 q 582 63 628 7 q 536 201 536 118 q 589 355 536 283 q 729 426 642 426 q 861 372 817 426 q 906 233 906 318 q 853 77 906 147 q 715 7 801 7 m 721 389 q 699 389 721 389 q 653 343 678 389 q 629 223 629 297 q 654 97 629 149 q 722 44 679 44 q 790 91 765 44 q 814 210 814 138 q 789 336 814 283 q 721 389 764 389 m 1131 7 q 1088 7 1131 7 q 999 63 1044 7 q 953 201 953 118 q 1006 355 953 283 q 1146 426 1058 426 q 1278 372 1233 426 q 1322 233 1322 318 q 1270 77 1322 147 q 1131 7 1218 7 m 1138 389 q 1116 389 1138 389 q 1070 343 1094 389 q 1046 223 1046 297 q 1071 97 1046 149 q 1139 44 1096 44 q 1206 91 1182 44 q 1231 210 1231 138 q 1206 336 1231 283 q 1138 389 1181 389 z "},"‹":{"ha":379,"x_min":56,"x_max":310,"o":"m 76 325 q 56 372 56 346 q 76 418 56 397 l 276 624 q 304 597 299 608 q 310 561 310 585 l 168 371 l 310 182 q 304 147 310 160 q 276 119 299 135 l 76 325 z "},"›":{"ha":376,"x_min":68,"x_max":322,"o":"m 68 182 l 210 371 l 68 561 q 74 597 68 585 q 101 624 79 608 l 301 418 q 322 372 322 397 q 301 325 322 346 l 101 119 q 74 147 79 135 q 68 182 68 160 z "},"⁄":{"ha":365,"x_min":3,"x_max":364,"o":"m 3 21 l 292 910 l 313 910 q 351 897 339 910 l 364 881 l 75 -8 l 54 -8 q 15 6 25 -8 l 3 21 z "}," ":{"ha":297,"x_min":0,"x_max":0,"o":""},"₀":{"ha":563,"x_min":50,"x_max":513,"o":"m 272 -218 q 218 -218 272 -218 q 107 -145 164 -218 q 50 39 50 -72 q 117 244 50 150 q 293 339 185 339 q 457 267 401 339 q 513 82 513 196 q 446 -125 513 -32 q 272 -218 379 -218 m 282 283 q 251 283 282 283 q 188 223 221 283 q 156 66 156 163 q 188 -97 156 -31 q 281 -162 219 -162 q 375 -103 343 -162 q 407 54 407 -43 q 375 217 407 151 q 282 283 343 283 z "},"₁":{"ha":340,"x_min":33,"x_max":314,"o":"m 232 -140 l 314 -156 q 292 -208 314 -192 l 51 -208 q 74 -161 51 -167 l 139 -143 l 139 249 l 42 229 q 33 263 33 249 q 42 288 33 276 l 193 339 l 232 339 l 232 -140 z "},"₂":{"ha":479,"x_min":43,"x_max":425,"o":"m 43 -147 l 88 -110 q 306 203 306 60 q 283 262 306 239 q 223 285 261 285 q 139 256 185 285 l 129 189 q 71 167 124 167 l 54 286 q 230 339 147 339 q 362 302 313 339 q 411 199 411 265 q 392 113 411 157 q 351 41 372 69 q 283 -31 331 13 q 218 -87 236 -74 l 149 -140 l 340 -153 l 367 -56 q 425 -79 406 -56 l 425 -208 l 68 -208 q 43 -147 43 -190 z "},"₃":{"ha":478,"x_min":42,"x_max":425,"o":"m 42 -97 q 90 -49 42 -49 q 118 -56 104 -49 q 136 -75 132 -64 q 158 -143 136 -124 q 228 -162 181 -162 q 300 -137 275 -162 q 325 -72 325 -112 q 224 38 325 7 q 192 88 192 54 q 314 201 314 126 q 292 262 314 239 q 231 285 269 285 q 147 256 193 285 l 138 189 q 79 167 132 167 l 63 286 q 236 339 156 339 q 363 302 317 339 q 410 199 410 265 q 308 75 410 119 q 425 -68 425 29 q 374 -178 425 -139 q 233 -218 322 -218 q 93 -180 144 -218 q 42 -97 42 -142 z "},"₄":{"ha":461,"x_min":17,"x_max":424,"o":"m 17 -19 l 286 339 q 350 288 350 339 l 350 -17 l 401 -17 l 401 -79 l 350 -79 l 350 -140 q 424 -156 381 -147 q 401 -208 424 -192 l 183 -208 q 203 -161 183 -168 l 258 -143 l 258 -79 l 42 -79 q 17 -19 17 -61 m 99 -17 l 258 -17 l 258 200 l 99 -17 z "},"₅":{"ha":471,"x_min":42,"x_max":424,"o":"m 227 -218 q 184 -218 227 -218 q 91 -181 140 -218 q 42 -96 42 -143 q 92 -49 42 -49 q 118 -56 104 -49 q 136 -75 132 -64 q 159 -143 136 -124 q 228 -162 182 -162 q 298 -133 275 -162 q 321 -54 321 -103 q 297 31 321 -6 q 215 67 272 67 q 104 28 158 67 l 92 25 q 69 68 69 35 l 93 329 l 397 329 l 376 178 q 317 204 321 189 l 306 275 l 153 261 l 153 103 q 246 125 197 125 q 376 79 328 125 q 424 -37 424 33 q 369 -162 424 -107 q 227 -218 314 -218 z "},"₆":{"ha":499,"x_min":50,"x_max":458,"o":"m 50 17 q 122 242 50 144 q 318 339 194 339 q 390 323 361 339 q 418 286 418 307 q 402 253 418 265 q 367 240 386 240 q 328 262 347 240 q 293 283 308 283 q 201 222 239 283 q 156 78 164 161 q 298 128 224 128 q 415 78 372 128 q 458 -42 458 29 q 403 -165 458 -112 q 267 -218 349 -218 q 103 -149 156 -218 q 50 17 50 -81 m 156 15 q 260 -162 161 -162 q 329 -126 304 -162 q 354 -42 354 -90 q 335 35 354 6 q 279 64 317 64 q 156 15 208 64 z "},"₇":{"ha":403,"x_min":22,"x_max":394,"o":"m 311 263 l 115 272 l 104 204 q 46 178 100 189 l 22 329 l 382 329 q 394 300 394 313 q 367 244 394 288 q 307 153 340 200 q 247 37 274 106 q 219 -85 219 -32 q 242 -178 219 -139 q 218 -205 236 -192 q 178 -218 200 -218 q 136 -195 156 -218 q 117 -128 117 -172 q 311 263 117 44 z "},"₈":{"ha":485,"x_min":49,"x_max":436,"o":"m 239 -218 q 194 -218 239 -218 q 99 -178 149 -218 q 49 -69 49 -139 q 144 67 49 1 q 75 178 75 108 q 119 294 75 249 q 244 339 164 339 q 367 300 324 339 q 411 199 411 261 q 344 79 411 138 q 436 -56 436 29 q 383 -170 436 -122 q 239 -218 329 -218 m 186 44 q 147 -52 147 6 q 173 -136 147 -110 q 242 -162 199 -162 q 313 -138 286 -162 q 339 -80 339 -114 q 322 -27 339 -46 q 287 1 306 -8 q 235 23 268 10 q 186 44 201 36 m 242 283 q 180 262 203 283 q 157 202 157 240 q 192 142 157 164 q 297 100 217 126 q 326 196 326 140 q 242 283 326 283 z "},"₉":{"ha":500,"x_min":43,"x_max":450,"o":"m 201 6 q 164 6 201 6 q 85 49 126 6 q 43 163 43 93 q 97 286 43 233 q 235 339 150 339 q 397 271 343 339 q 450 106 450 203 q 376 -120 450 -22 q 175 -218 301 -218 q 100 -202 131 -218 q 69 -165 69 -186 q 85 -132 69 -144 q 119 -119 101 -119 q 160 -141 136 -119 q 199 -162 185 -162 q 297 -97 257 -162 q 344 56 338 -32 q 201 6 276 6 m 149 168 q 221 72 149 72 q 344 121 296 72 q 242 283 335 283 q 173 250 197 283 q 149 168 149 217 z "},"€":{"ha":839,"x_min":56,"x_max":757,"o":"m 56 306 q 69 360 56 340 l 128 360 q 140 464 128 411 l 56 464 q 69 518 56 499 l 156 518 q 292 725 199 643 q 522 807 386 807 q 757 744 657 807 l 732 561 q 672 585 678 565 l 657 685 q 499 746 592 746 q 347 685 406 746 q 267 518 289 624 l 538 518 q 524 464 538 478 l 258 464 q 256 390 256 414 q 257 360 256 367 l 538 360 q 524 306 538 319 l 264 306 q 344 119 283 193 q 488 46 406 46 q 657 119 593 46 l 672 257 q 743 236 725 257 l 757 90 q 483 -17 635 -17 q 238 75 331 -17 q 131 306 146 167 l 56 306 z "},"™":{"ha":1079,"x_min":88,"x_max":1000,"o":"m 88 792 l 88 890 l 439 890 l 439 792 q 400 804 407 792 l 381 854 l 297 846 l 297 543 l 353 531 q 335 499 353 511 l 182 499 q 197 528 182 522 l 229 540 l 229 846 l 146 854 l 126 804 q 88 792 119 792 m 475 499 q 492 529 475 522 l 522 540 l 551 839 l 503 854 q 519 890 503 879 l 635 890 l 739 610 l 838 890 l 975 890 q 960 857 975 861 l 921 843 l 946 543 l 1000 531 q 986 499 1000 511 l 831 499 q 846 529 831 521 l 878 542 l 858 793 l 754 513 q 735 497 746 497 q 713 501 725 497 l 599 796 l 574 543 l 631 531 q 614 499 631 510 l 475 499 z "},"Ω":{"ha":1139,"x_min":61,"x_max":1078,"o":"m 61 0 l 61 207 q 85 228 72 222 q 125 233 97 233 l 168 64 l 349 76 q 203 259 258 149 q 149 468 149 369 q 173 641 149 567 q 246 777 197 715 q 378 874 294 839 q 569 910 461 910 q 885 787 779 910 q 990 482 990 664 q 936 258 990 368 q 790 76 882 149 l 971 64 l 1014 233 q 1054 228 1042 233 q 1078 207 1067 222 l 1078 0 l 713 0 q 684 33 692 15 q 676 86 676 50 q 849 432 849 179 q 781 726 849 611 q 570 842 713 842 q 359 726 428 842 q 290 432 290 611 q 463 86 290 182 q 455 33 463 50 q 426 0 447 15 l 61 0 z "},"∂":{"ha":769,"x_min":53,"x_max":708,"o":"m 357 -17 q 137 68 221 -17 q 53 276 53 153 q 128 491 53 399 q 338 583 203 583 q 487 560 421 583 q 586 503 553 536 q 444 776 579 636 q 79 986 308 917 q 131 1019 79 1019 q 312 964 204 1019 q 505 838 419 908 q 649 651 590 768 q 708 383 708 535 q 629 111 708 228 q 519 18 589 53 q 357 -17 449 -17 m 360 507 q 317 507 360 507 q 226 434 275 507 q 178 271 178 361 q 229 116 178 181 q 368 51 281 51 q 586 432 586 51 q 501 484 557 461 q 360 507 444 507 z "},"∆":{"ha":810,"x_min":44,"x_max":771,"o":"m 44 64 l 342 858 q 397 910 361 910 q 442 900 419 910 l 771 64 q 765 24 771 36 q 744 0 760 11 l 71 0 q 50 24 56 11 q 44 64 44 36 m 139 93 l 631 93 l 379 735 l 139 93 z "},"∏":{"ha":1049,"x_min":67,"x_max":993,"o":"m 67 0 q 89 54 67 47 l 176 86 l 176 797 l 67 826 q 72 867 67 854 q 93 890 78 879 l 993 890 q 971 836 993 843 l 868 804 l 868 93 l 993 64 q 988 24 993 36 q 967 0 982 11 l 639 0 q 661 54 639 47 l 749 86 l 749 804 l 296 804 l 296 93 l 421 64 q 415 24 421 36 q 394 0 410 11 l 67 0 z "},"∑":{"ha":738,"x_min":44,"x_max":669,"o":"m 44 64 l 381 436 l 71 826 q 97 890 71 872 l 626 890 l 626 678 q 572 700 579 678 l 526 826 l 229 804 l 476 493 q 489 464 489 476 q 481 443 489 451 l 167 93 l 563 64 l 606 233 q 646 228 633 233 q 669 207 658 222 l 669 0 l 71 0 q 44 64 44 18 z "},"−":{"ha":794,"x_min":94,"x_max":700,"o":"m 114 326 q 94 374 94 342 q 99 415 94 406 l 681 415 q 700 368 700 400 q 696 326 700 336 l 114 326 z "},"√":{"ha":793,"x_min":18,"x_max":815,"o":"m 18 615 l 133 615 l 333 113 l 632 890 l 815 890 q 793 836 815 842 l 665 804 l 369 35 q 313 -17 349 -17 q 268 -7 290 -17 l 18 615 z "},"∞":{"ha":1043,"x_min":82,"x_max":960,"o":"m 156 231 q 119 263 156 231 q 82 406 82 294 q 142 579 82 517 q 294 642 201 642 q 503 504 415 642 q 708 642 558 636 q 885 578 811 642 q 960 403 960 515 q 900 229 960 290 q 747 168 840 168 q 539 306 626 168 q 333 168 483 174 q 156 231 231 168 m 313 569 q 192 526 232 569 q 151 405 151 482 q 192 283 151 328 q 303 239 232 239 q 409 288 374 239 q 483 451 444 336 q 452 495 469 474 q 394 543 435 517 q 313 569 354 569 m 558 358 q 588 316 571 338 q 647 267 606 294 q 729 240 688 240 q 850 284 810 240 q 890 405 890 328 q 850 526 890 482 q 738 571 810 571 q 632 524 665 571 q 558 358 599 476 z "},"∫":{"ha":581,"x_min":-18,"x_max":599,"o":"m 3 -353 q -7 -342 3 -353 q -18 -300 -18 -331 q -1 -247 -18 -269 l 76 -261 q 128 -267 104 -267 q 210 -217 186 -267 q 233 -33 233 -168 l 233 622 q 269 803 233 713 q 370 957 304 894 q 515 1019 436 1019 q 577 997 556 1019 q 599 944 599 975 q 582 892 599 914 l 504 906 q 453 911 476 911 q 371 862 394 911 q 347 678 347 813 l 347 22 q 263 -249 347 -124 q 65 -375 179 -375 q 3 -353 25 -375 z "},"≈":{"ha":742,"x_min":90,"x_max":658,"o":"m 90 200 q 147 295 90 246 q 281 344 204 344 q 406 310 322 344 q 525 276 489 276 q 642 360 593 276 q 658 318 658 342 q 597 224 658 274 q 458 175 535 175 q 338 208 418 175 q 219 242 257 242 q 107 161 154 242 q 90 200 90 182 m 90 422 q 147 517 90 468 q 281 567 204 567 q 406 533 322 567 q 525 499 489 499 q 642 582 593 499 q 658 540 658 564 q 597 447 658 496 q 458 397 535 397 q 338 431 418 397 q 219 464 257 464 q 107 383 154 464 q 90 422 90 404 z "},"≠":{"ha":700,"x_min":78,"x_max":628,"o":"m 97 229 q 78 276 78 244 q 82 318 78 308 l 267 318 l 344 424 l 97 424 q 78 471 78 439 q 82 513 78 503 l 410 513 l 531 676 q 607 639 592 676 l 514 513 l 608 513 q 628 465 628 497 q 624 422 628 433 l 447 422 l 371 318 l 608 318 q 628 271 628 303 q 624 229 628 239 l 304 229 l 175 53 q 99 90 114 53 l 201 229 l 97 229 z "},"≤":{"ha":786,"x_min":76,"x_max":689,"o":"m 97 463 q 76 510 76 483 q 97 557 76 536 l 685 794 q 689 751 689 783 q 669 704 689 719 l 210 510 l 669 315 q 689 268 689 300 q 685 225 689 236 l 97 463 m 103 43 q 83 89 83 58 q 88 129 83 119 l 669 129 q 689 83 689 114 q 685 43 689 53 l 103 43 z "},"≥":{"ha":785,"x_min":97,"x_max":710,"o":"m 101 43 q 97 83 97 53 q 117 129 97 114 l 699 129 q 703 89 703 119 q 683 43 703 58 l 101 43 m 101 225 q 97 268 97 236 q 117 315 97 300 l 576 510 l 117 704 q 97 751 97 719 q 101 794 97 783 l 689 557 q 710 510 710 536 q 689 463 710 483 l 101 225 z "},"◊":{"ha":900,"x_min":47,"x_max":853,"o":"m 68 365 q 47 413 47 389 q 68 460 47 436 l 403 821 q 450 842 424 842 q 497 821 476 842 l 832 460 q 853 413 853 436 q 832 365 853 389 l 497 4 q 450 -17 476 -17 q 403 4 424 -17 l 68 365 m 157 413 l 450 75 l 743 413 l 450 750 l 157 413 z "},"":{"ha":618,"x_min":0,"x_max":618,"o":"m 0 618 l 618 618 l 618 0 l 0 0 l 0 618 z "},"":{"ha":0,"x_min":0,"x_max":0,"o":""},"ﬁ":{"ha":796,"x_min":36,"x_max":779,"o":"m 36 0 q 58 54 36 46 l 136 86 l 136 551 l 49 556 q 75 618 49 606 l 136 621 q 172 803 136 713 q 281 956 208 893 q 447 1019 354 1019 q 605 962 539 1019 q 671 847 671 904 q 651 795 671 815 q 599 775 632 775 q 549 792 565 775 q 528 835 533 810 q 517 886 524 861 q 483 928 510 911 q 410 946 457 946 q 293 888 336 946 q 250 678 250 831 l 250 622 l 592 626 q 665 551 665 626 l 665 93 l 779 64 q 774 24 779 36 q 753 0 768 11 l 451 0 q 474 54 451 46 l 551 86 l 551 535 l 250 546 l 250 93 l 378 64 q 372 24 378 36 q 351 0 367 11 l 36 0 z "},"ﬂ":{"ha":800,"x_min":36,"x_max":783,"o":"m 36 0 q 58 54 36 46 l 136 86 l 136 551 l 49 557 q 75 619 49 607 l 136 622 q 181 801 136 710 q 305 956 225 893 q 474 1019 385 1019 l 592 1019 q 646 997 626 1019 q 665 946 665 975 l 665 93 l 783 64 q 753 0 783 22 l 451 0 q 474 54 451 46 l 551 86 l 551 919 q 331 901 378 919 q 250 678 250 871 l 250 629 l 432 642 q 444 606 444 628 q 418 563 444 583 q 338 542 392 542 l 250 546 l 250 93 l 378 64 q 372 24 378 36 q 351 0 367 11 l 36 0 z "}}}
